<svg viewBox="0 0 204 114" fill="none" xmlns="http://www.w3.org/2000/svg">
<rect x="8.7525" y="0.494629" width="60" height="95.2294" rx="6.49177" transform="rotate(5.27472 8.7525 0.494629)" fill="#CBE5F8"/>
<path d="M29.4563 75.8317L33.7225 29.6219L37.3875 34.1905L22.8136 32.845L23.529 25.096L43.2926 26.9206L38.6982 76.6849L29.4563 75.8317Z" fill="#3090D7"/>
<rect x="76.4645" y="6.74609" width="60" height="95.2294" rx="6.49177" transform="rotate(5.27472 76.4645 6.74609)" fill="#CBE5F8"/>
<path d="M99.5201 83.0172C95.5863 82.654 92.1236 81.3306 89.1319 79.0469C86.1877 76.7675 83.9901 73.6489 82.5391 69.691C81.0925 65.6858 80.6208 60.958 81.124 55.5076C81.6272 50.0572 82.9543 45.5194 85.1054 41.8941C87.2608 38.2214 89.9944 35.5342 93.3062 33.8324C96.6655 32.135 100.312 31.4678 104.246 31.831C108.227 32.1986 111.69 33.522 114.634 35.8014C117.578 38.0807 119.774 41.223 121.22 45.2283C122.718 49.1905 123.216 53.8968 122.713 59.3472C122.21 64.7976 120.857 69.3569 118.654 73.0252C116.503 76.6505 113.771 79.3141 110.46 81.0159C107.148 82.7176 103.501 83.3848 99.5201 83.0172ZM100.262 74.9838C102.584 75.1982 104.655 74.7681 106.475 73.6933C108.3 72.5712 109.806 70.7505 110.995 68.2313C112.23 65.7165 113.032 62.4685 113.4 58.4874C113.772 54.4588 113.578 51.119 112.819 48.4678C112.112 45.7735 110.962 43.7315 109.37 42.3418C107.782 40.9046 105.826 40.0788 103.504 39.8644C101.276 39.6587 99.2268 40.1148 97.3551 41.2326C95.5351 42.3073 94.0072 44.1021 92.7712 46.6169C91.587 49.0887 90.809 52.3389 90.4371 56.3674C90.0695 60.3486 90.2394 63.6862 90.9466 66.3805C91.7012 69.0791 92.8726 71.1469 94.4607 72.5841C96.1005 73.9783 98.0342 74.7782 100.262 74.9838Z" fill="#3090D7"/>
<g clip-path="url(#clip0_846_1060)">
<path d="M146.841 86.6686L185.417 40.0415L192.384 40.6847L153.808 87.3118L146.841 86.6686ZM153.084 64.0865C150.762 63.8721 148.753 63.1131 147.057 61.8093C145.361 60.5056 144.109 58.7888 143.302 56.6589C142.495 54.5291 142.218 52.0897 142.472 49.3408C142.726 46.5919 143.445 44.2444 144.628 42.2983C145.811 40.3523 147.356 38.8936 149.262 37.9224C151.168 36.9512 153.282 36.5728 155.605 36.7872C158.022 37.0104 160.055 37.7716 161.703 39.071C163.399 40.3747 164.651 42.0915 165.458 44.2214C166.265 46.3513 166.542 48.7906 166.288 51.5395C166.034 54.2884 165.316 56.6359 164.132 58.582C162.949 60.5281 161.404 61.9867 159.498 62.9579C157.639 63.9335 155.501 64.3097 153.084 64.0865ZM153.615 59.1167C155.511 59.2917 157.048 58.6927 158.226 57.3197C159.456 55.9037 160.2 53.7976 160.458 51.0013C160.717 48.205 160.368 46.022 159.414 44.4521C158.511 42.8392 157.112 41.9452 155.216 41.7702C153.321 41.5952 151.734 42.2135 150.456 43.6251C149.226 45.0411 148.484 47.1235 148.231 49.8724C147.977 52.6213 148.325 54.8044 149.275 56.4217C150.272 58.0433 151.719 58.9416 153.615 59.1167ZM183.55 90.5595C181.227 90.3451 179.218 89.586 177.522 88.2822C175.826 86.9785 174.575 85.2617 173.767 83.1318C172.96 81.002 172.684 78.5626 172.937 75.8137C173.191 73.0648 173.91 70.7174 175.093 68.7713C176.277 66.8252 177.821 65.3665 179.727 64.3953C181.633 63.4241 183.748 63.0458 186.07 63.2602C188.487 63.4833 190.52 64.2446 192.169 65.5439C193.865 66.8477 195.116 68.5645 195.923 70.6943C196.73 72.8242 197.007 75.2636 196.753 78.0125C196.499 80.7613 195.781 83.1088 194.597 85.0549C193.414 87.001 191.869 88.4596 189.963 89.4308C188.105 90.4064 185.967 90.7826 183.55 90.5595ZM184.009 85.583C185.905 85.7581 187.468 85.1376 188.698 83.7216C189.928 82.3056 190.67 80.2231 190.924 77.4743C191.177 74.7254 190.829 72.5423 189.879 70.925C188.929 69.3078 187.506 68.4116 185.611 68.2366C183.762 68.0659 182.199 68.6864 180.922 70.098C179.696 71.4666 178.954 73.5491 178.696 76.3454C178.438 79.1416 178.784 81.3484 179.734 82.9657C180.736 84.5399 182.161 85.4124 184.009 85.583Z" fill="#3090D7"/>
</g>
<defs>
<clipPath id="clip0_846_1060">
<rect x="144.177" y="12.9971" width="60" height="95.2294" rx="6.49177" transform="rotate(5.27472 144.177 12.9971)" fill="white"/>
</clipPath>
</defs>
</svg>
