<svg  viewBox="0 0 241 82" fill="none" xmlns="http://www.w3.org/2000/svg">
<rect x="1.54907" y="0.749023" width="47.9916" height="75.9813" rx="5.19251" transform="rotate(1.10685 1.54907 0.749023)" fill="#EAC7FF"/>
<path d="M22.4448 59.6541L23.1618 22.5425L26.3512 25.9739L14.6467 25.7478L14.767 19.5245L30.6393 19.8311L29.8671 59.7975L22.4448 59.6541Z" fill="#BD5AF9"/>
<rect x="55.9294" y="1.79932" width="130.279" height="75.9813" rx="5.19251" transform="rotate(1.10685 55.9294 1.79932)" fill="#EAC7FF"/>
<path d="M81.4754 61.3657C78.3162 61.3047 75.4769 60.4502 72.9575 58.8022C70.4763 57.1551 68.5418 54.795 67.1543 51.722C65.7674 48.6109 65.1163 44.8667 65.2009 40.4895C65.2854 36.1122 66.0803 32.415 67.5856 29.3979C69.0915 26.3427 71.1161 24.0401 73.6591 22.49C76.2402 20.9406 79.1104 20.1964 82.2697 20.2574C85.467 20.3192 88.3063 21.1737 90.7875 22.8209C93.2688 24.4681 95.2029 26.8472 96.5897 29.9583C98.0154 33.032 98.6859 36.7575 98.6013 41.1348C98.5167 45.512 97.7024 49.2279 96.1584 52.2823C94.6532 55.2994 92.629 57.5831 90.086 59.1332C87.5429 60.6833 84.6727 61.4275 81.4754 61.3657ZM81.6001 54.914C83.4652 54.95 85.0924 54.4864 86.4818 53.5233C87.8719 52.522 88.9679 50.9821 89.7696 48.9033C90.6093 46.8253 91.0601 44.1876 91.1219 40.9903C91.1844 37.7549 90.8359 35.1018 90.0762 33.0309C89.3554 30.9228 88.3194 29.3606 86.9683 28.3445C85.6179 27.2903 84.0101 26.7452 82.145 26.7092C80.356 26.6746 78.7475 27.1576 77.3193 28.1581C75.9299 29.1212 74.8153 30.6418 73.9755 32.7199C73.1745 34.7606 72.7428 37.3986 72.6803 40.634C72.6185 43.8313 72.948 46.484 73.6688 48.5922C74.4277 50.7011 75.4824 52.2827 76.8328 53.3369C78.222 54.3537 79.8111 54.8794 81.6001 54.914ZM119.892 62.1079C116.732 62.0469 113.893 61.1924 111.374 59.5445C108.893 57.8973 106.958 55.5372 105.571 52.4642C104.184 49.3531 103.533 45.609 103.617 41.2317C103.702 36.8544 104.497 33.1572 106.002 30.1401C107.508 27.085 109.532 24.7823 112.075 23.2322C114.657 21.6828 117.527 20.9386 120.686 20.9997C123.883 21.0615 126.723 21.9159 129.204 23.5631C131.685 25.2103 133.619 27.5894 135.006 30.7005C136.432 33.7742 137.102 37.4997 137.018 41.877C136.933 46.2543 136.119 49.9701 134.575 53.0246C133.069 56.0417 131.045 58.3253 128.502 59.8754C125.959 61.4255 123.089 62.1697 119.892 62.1079ZM120.016 55.6562C121.881 55.6922 123.509 55.2287 124.898 54.2655C126.288 53.2643 127.384 51.7243 128.186 49.6455C129.026 47.5675 129.476 44.9298 129.538 41.7325C129.601 38.4971 129.252 35.844 128.493 33.7732C127.772 31.665 126.736 30.1028 125.385 29.0867C124.034 28.0325 122.426 27.4874 120.561 27.4514C118.772 27.4168 117.164 27.8998 115.736 28.9003C114.346 29.8635 113.232 31.3841 112.392 33.4621C111.591 35.5028 111.159 38.1408 111.097 41.3762C111.035 44.5735 111.364 47.2263 112.085 49.3344C112.844 51.4434 113.899 53.0249 115.249 54.0791C116.638 55.0959 118.227 55.6216 120.016 55.6562ZM158.308 62.8501C155.149 62.7891 152.31 61.9346 149.79 60.2867C147.309 58.6395 145.374 56.2794 143.987 53.2064C142.6 50.0953 141.949 46.3512 142.033 41.9739C142.118 37.5967 142.913 33.8995 144.418 30.8824C145.924 27.8272 147.949 25.5245 150.492 23.9744C153.073 22.425 155.943 21.6809 159.102 21.7419C162.3 21.8037 165.139 22.6582 167.62 24.3054C170.101 25.9525 172.036 28.3317 173.422 31.4427C174.848 34.5165 175.519 38.242 175.434 42.6192C175.349 46.9965 174.535 50.7124 172.991 53.7668C171.486 56.7839 169.462 59.0675 166.919 60.6176C164.376 62.1677 161.505 62.9119 158.308 62.8501ZM158.433 56.3984C160.298 56.4345 161.925 55.9709 163.314 55.0077C164.705 54.0065 165.8 52.4665 166.602 50.3877C167.442 48.3097 167.893 45.672 167.955 42.4747C168.017 39.2394 167.668 36.5862 166.909 34.5154C166.188 32.4072 165.152 30.8451 163.801 29.8289C162.45 28.7748 160.843 28.2297 158.978 28.1936C157.189 28.1591 155.58 28.642 154.152 29.6425C152.762 30.6057 151.648 32.1263 150.808 34.2043C150.007 36.245 149.575 38.8831 149.513 42.1184C149.451 45.3157 149.781 47.9685 150.501 50.0767C151.26 52.1856 152.315 53.7671 153.665 54.8213C155.055 55.8382 156.644 56.3639 158.433 56.3984Z" fill="#BD5AF9"/>
<path d="M201.121 63.1063L201.893 23.14L218.336 23.4577C223.589 23.5592 227.697 24.7808 230.66 27.1227C233.661 29.4273 235.119 32.7872 235.034 37.2026C234.95 41.5798 233.363 44.8809 230.274 47.1059C227.223 49.2935 223.072 50.3366 217.819 50.2351L205.486 49.9968L208.864 46.6351L208.543 63.2497L201.121 63.1063ZM208.849 47.4345L205.602 44.0019L217.878 44.2391C220.923 44.2979 223.276 43.7151 224.937 42.4906C226.636 41.2288 227.509 39.437 227.554 37.1152C227.599 34.7933 226.795 33.0072 225.144 31.7568C223.532 30.4691 221.203 29.7958 218.158 29.737L205.882 29.4998L209.265 25.9097L208.849 47.4345ZM195.526 57.0582L195.603 53.0615L221.296 53.5579L221.219 57.5545L195.526 57.0582Z" fill="#BD5AF9"/>
</svg>
