<svg viewBox="0 0 204 114" fill="none" xmlns="http://www.w3.org/2000/svg">
<rect y="18.5078" width="60" height="95.2294" rx="6.49177" transform="rotate(-5.27164 0 18.5078)" fill="#FFF296"/>
<path d="M34.143 88.7828L29.8793 42.5728L34.3186 46.3933L19.7447 47.738L19.0297 39.989L38.7933 38.1654L43.385 87.93L34.143 88.7828Z" fill="#C4AE12"/>
<rect x="67.7124" y="12.2603" width="60" height="95.2294" rx="6.49177" transform="rotate(-5.27164 67.7124 12.2603)" fill="#FFF296"/>
<path d="M102.448 83.1974C98.9409 83.521 95.4589 83.3404 92.002 82.6556C88.5882 81.9191 85.6607 80.7552 83.2195 79.1641L86.5382 71.6165C88.4748 72.9195 90.7643 73.9032 93.4067 74.5676C96.0491 75.232 98.7684 75.4351 101.565 75.1771C104.882 74.871 107.404 73.9692 109.13 72.4716C110.852 70.9266 111.605 68.9929 111.391 66.6705C111.181 64.3956 110.162 62.6733 108.333 61.5037C106.505 60.334 103.694 59.9241 99.9029 60.274L95.3529 60.6938L94.7691 54.3666L107.426 36.1347L108.956 39.5067L82.2257 41.9731L81.5107 34.224L115.422 31.0951L115.992 37.2802L103.335 55.512L98.2385 53.1144L101.011 52.8586C107.125 52.2945 111.825 53.2469 115.112 55.7159C118.442 58.1332 120.304 61.4746 120.698 65.7401C120.956 68.5364 120.483 71.1851 119.28 73.686C118.077 76.1869 116.074 78.3076 113.271 80.0479C110.511 81.7365 106.903 82.7864 102.448 83.1974Z" fill="#C4AE12"/>
<g clip-path="url(#clip0_846_1074)">
<path d="M151.528 77.9517L180.919 25.0517L187.886 24.4088L158.495 77.3089L151.528 77.9517ZM153.533 54.6085C151.211 54.8227 149.097 54.4442 147.191 53.4729C145.285 52.5016 143.74 51.0429 142.557 49.0968C141.373 47.1506 140.655 44.8031 140.401 42.0542C140.148 39.3053 140.424 36.8659 141.232 34.7361C142.039 32.6063 143.291 30.8896 144.987 29.5859C146.683 28.2823 148.692 27.5233 151.014 27.309C153.431 27.086 155.569 27.4623 157.428 28.438C159.334 29.4093 160.878 30.868 162.062 32.8142C163.245 34.7603 163.963 37.1078 164.217 39.8567C164.471 42.6056 164.194 45.045 163.387 47.1748C162.579 49.3046 161.328 51.0214 159.632 52.325C157.983 53.6243 155.95 54.3854 153.533 54.6085ZM153.145 49.6254C155.041 49.4505 156.442 48.5803 157.349 47.0149C158.299 45.3977 158.646 43.1909 158.388 40.3946C158.13 37.5983 157.388 35.5158 156.162 34.1472C154.979 32.7267 153.44 32.104 151.544 32.2789C149.649 32.4538 148.202 33.3521 147.204 34.9737C146.254 36.5909 145.906 38.774 146.16 41.5229C146.413 44.2718 147.155 46.3542 148.385 47.7703C149.663 49.182 151.249 49.8004 153.145 49.6254ZM188.329 75.0581C186.007 75.2724 183.893 74.8939 181.987 73.9226C180.081 72.9513 178.536 71.4925 177.353 69.5464C176.169 67.6002 175.451 65.2527 175.197 62.5038C174.944 59.7549 175.22 57.3156 176.028 55.1857C176.835 53.0559 178.087 51.3392 179.783 50.0355C181.479 48.7319 183.488 47.9729 185.81 47.7586C188.227 47.5356 190.365 47.9119 192.224 48.8876C194.13 49.8589 195.674 51.3176 196.858 53.2638C198.041 55.2099 198.759 57.5575 199.013 60.3064C199.267 63.0553 198.99 65.4946 198.183 67.6244C197.375 69.7543 196.124 71.471 194.428 72.7746C192.779 74.0739 190.746 74.8351 188.329 75.0581ZM187.87 70.0816C189.766 69.9067 191.189 69.0106 192.139 67.3934C193.089 65.7762 193.437 63.5932 193.184 60.8443C192.93 58.0953 192.188 56.0129 190.958 54.5968C189.728 53.1808 188.165 52.5602 186.269 52.7351C184.421 52.9057 182.998 53.8017 182 55.4233C181.046 56.9931 180.698 59.1762 180.956 61.9725C181.214 64.7688 181.958 66.875 183.188 68.291C184.461 69.6553 186.021 70.2522 187.87 70.0816Z" fill="#C4AE12"/>
</g>
<defs>
<clipPath id="clip0_846_1074">
<rect x="135.425" y="6.01221" width="60" height="95.2294" rx="6.49177" transform="rotate(-5.27164 135.425 6.01221)" fill="white"/>
</clipPath>
</defs>
</svg>
