<svg  viewBox="0 0 64 65" fill="none" xmlns="http://www.w3.org/2000/svg">
<path d="M62 4.5V60.5C62 61.6 61.1 62.5 60 62.5H4C2.9 62.5 2 61.6 2 60.5V4.5C2 3.4 2.9 2.5 4 2.5H60C61.1 2.5 62 3.4 62 4.5Z" fill="#FFF296"/>
<path d="M10 18.5H26M12.3438 52.166L23.6558 40.854M38 18.5H54M18 26.5V10.5M40.3438 52.166L51.6558 40.854M51.6562 52.166L40.3442 40.854M62 60.5C62 61.606 61.106 62.5 60 62.5H4C2.894 62.5 2 61.606 2 60.5V4.5C2 3.394 2.894 2.5 4 2.5H60C61.106 2.5 62 3.394 62 4.5V60.5Z" stroke="#181818" stroke-width="2" stroke-linecap="round" stroke-linejoin="round"/>
</svg>
