<svg  viewBox="0 0 40 41" fill="none" xmlns="http://www.w3.org/2000/svg">
<rect y="0.359375" width="40" height="40" rx="10" fill="#EAC7FF"/>
<path d="M12 15.3594V12.3594C12 11.8289 12.2107 11.3202 12.5858 10.9452C12.9609 10.5701 13.4696 10.3594 14 10.3594H22.5L28 15.8594V28.3594C28 28.8898 27.7893 29.3985 27.4142 29.7736C27.0391 30.1487 26.5304 30.3594 26 30.3594H20" stroke="#181818" stroke-linecap="round" stroke-linejoin="round"/>
<path d="M22 10.3594V16.3594H28" stroke="#181818" stroke-linecap="round" stroke-linejoin="round"/>
<path d="M13 25.3594C13.394 25.3594 13.7841 25.2818 14.1481 25.131C14.512 24.9802 14.8427 24.7593 15.1213 24.4807C15.3999 24.2021 15.6209 23.8714 15.7716 23.5074C15.9224 23.1434 16 22.7533 16 22.3594C16 21.9654 15.9224 21.5753 15.7716 21.2113C15.6209 20.8473 15.3999 20.5166 15.1213 20.2381C14.8427 19.9595 14.512 19.7385 14.1481 19.5877C13.7841 19.437 13.394 19.3594 13 19.3594C12.2044 19.3594 11.4413 19.6754 10.8787 20.2381C10.3161 20.8007 10 21.5637 10 22.3594C10 23.155 10.3161 23.9181 10.8787 24.4807C11.4413 25.0433 12.2044 25.3594 13 25.3594Z" stroke="#181818" stroke-linecap="round" stroke-linejoin="round"/>
<path d="M15 24.8594L16 30.3594L13 29.3594L10 30.3594L11 24.8594" stroke="#181818" stroke-linecap="round" stroke-linejoin="round"/>
</svg>
