<svg width="192" height="192" viewBox="0 0 192 192" fill="none" xmlns="http://www.w3.org/2000/svg">
<path d="M169.29 83.8257C172.072 91.8809 172.072 100.712 169.258 108.768C173.69 105.112 177.41 100.874 180.451 96.2805C177.41 91.6868 173.69 87.4489 169.29 83.8257Z" fill="#601B23"/>
<path d="M169.29 83.8257C172.072 91.8809 172.072 100.712 169.258 108.768C173.69 105.112 177.41 100.874 180.451 96.2805C177.41 91.6868 173.69 87.4489 169.29 83.8257Z" stroke="#601B23" stroke-width="1.94101" stroke-miterlimit="10" stroke-linecap="round" stroke-linejoin="round"/>
<path d="M43.6418 109.835C37.6247 109.835 31.8664 108.574 26.011 106.244C25.8169 106.18 25.6228 106.083 25.3963 105.986C19.8321 103.656 14.2679 100.324 11.0005 96.2804C14.3649 92.1073 20.1556 88.7105 25.8816 86.3489C25.9139 86.3166 25.9463 86.3166 26.011 86.2842C31.8664 83.955 37.6247 82.6934 43.6418 82.6934C45.4858 82.6934 47.2974 82.8228 49.1737 83.0492C55.4497 83.8256 63.0196 88.0958 63.8284 93.4336C63.8284 93.4983 63.8607 93.563 63.8607 93.6277C64.0548 95.3099 64.0548 97.0245 63.8931 98.7067C63.8931 98.7714 63.8931 98.8685 63.8607 98.9332C63.1814 104.368 55.5144 108.735 49.1737 109.512C47.2974 109.706 45.4858 109.835 43.6418 109.835Z" fill="#F4A045"/>
<path d="M43.6418 109.835C37.6247 109.835 31.8664 108.574 26.011 106.244C25.8169 106.18 25.6228 106.083 25.3963 105.986C19.8321 103.656 14.2679 100.324 11.0005 96.2804C14.3649 92.1073 20.1556 88.7105 25.8816 86.3489C25.9139 86.3166 25.9463 86.3166 26.011 86.2842C31.8664 83.955 37.6247 82.6934 43.6418 82.6934C45.4858 82.6934 47.2974 82.8228 49.1737 83.0492C55.4497 83.8256 63.0196 88.0958 63.8284 93.4336C63.8284 93.4983 63.8607 93.563 63.8607 93.6277C64.0548 95.3099 64.0548 97.0245 63.8931 98.7067C63.8931 98.7714 63.8931 98.8685 63.8607 98.9332C63.1814 104.368 55.5144 108.735 49.1737 109.512C47.2974 109.706 45.4858 109.835 43.6418 109.835Z" stroke="#601B23" stroke-width="1.94101" stroke-miterlimit="10" stroke-linecap="round" stroke-linejoin="round"/>
<path d="M63.9256 94.7914C63.5374 91.7505 59.2672 89.3242 55.741 88.8713C54.7058 88.7419 53.703 88.6772 52.6678 88.6772C49.3033 88.6772 46.1007 89.3889 42.8333 90.683C39.6306 91.977 36.3633 93.918 34.4869 96.2472C36.3633 98.6088 39.6306 100.517 42.8333 101.811C46.1007 103.105 49.3033 103.817 52.6678 103.817C53.703 103.817 54.7058 103.752 55.741 103.623C59.2995 103.17 63.5374 100.744 63.9256 97.703C64.0227 96.7648 64.0227 95.7619 63.9256 94.7914Z" fill="#E36535"/>
<path d="M63.9256 94.7914C63.5374 91.7505 59.2672 89.3242 55.741 88.8713C54.7058 88.7419 53.703 88.6772 52.6678 88.6772C49.3033 88.6772 46.1007 89.3889 42.8333 90.683C39.6306 91.977 36.3632 93.918 34.4869 96.2472C36.3632 98.6088 39.6306 100.517 42.8333 101.811C46.1007 103.105 49.3033 103.817 52.6678 103.817C53.703 103.817 54.7058 103.752 55.741 103.623C59.2995 103.17 63.5374 100.744 63.9256 97.703C64.0227 96.7648 64.0227 95.7619 63.9256 94.7914Z" stroke="#601B23" stroke-width="1.94101" stroke-miterlimit="10" stroke-linecap="round" stroke-linejoin="round"/>
<path d="M113.325 57.2332L109.217 46.687L129.242 46.687L154.507 79.0696L116.625 79.0696L112.517 71.2408C114.716 67.0676 115.169 61.9887 113.325 57.2332Z" fill="#C11A4D"/>
<path d="M103.975 43.2577C108.762 39.958 114.424 38.0493 120.473 38.0493C128.14 38.0493 135.16 41.0579 140.563 46.0722C135.16 51.0864 128.14 54.1274 120.473 54.1597C114.391 54.1597 108.762 52.2511 103.975 48.9837L103.975 43.2577Z" fill="#CF264D"/>
<path opacity="0.72" d="M109.216 46.687L113.292 57.1685C116.074 57.2979 118.921 57.1038 121.768 56.5862C126.038 55.8098 130.05 54.354 133.673 52.3483L129.241 46.687L109.216 46.687Z" fill="#A5143A"/>
<path opacity="0.23" d="M123.645 48.0457L147.843 79.1019L154.507 79.1019L129.274 46.687L109.217 46.687L109.734 48.0457L123.645 48.0457Z" fill="#F4A15D"/>
<path opacity="0.72" d="M114.231 66.1948C113.94 67.974 113.358 69.6563 112.517 71.2414L116.625 79.0702L154.507 79.0702L143.864 65.4184C139.755 64.739 135.453 64.4155 131.021 64.4155C125.165 64.4479 119.504 65.0625 114.231 66.1948Z" fill="#A5143A"/>
<path d="M113.325 57.2332L109.217 46.687L129.242 46.687L154.507 79.0696L116.625 79.0696L112.517 71.2408C114.716 67.0676 115.169 61.9887 113.325 57.2332Z" stroke="#601B23" stroke-width="1.94101" stroke-miterlimit="10" stroke-linecap="round" stroke-linejoin="round"/>
<path d="M103.975 43.2577C108.762 39.958 114.424 38.0493 120.473 38.0493C128.14 38.0493 135.16 41.0579 140.563 46.0722C135.16 51.0864 128.14 54.1274 120.473 54.1597C114.391 54.1597 108.762 52.2511 103.975 48.9837L103.975 43.2577Z" fill="#CF264D"/>
<path opacity="0.23" d="M140.563 45.5876C140.142 45.9758 139.689 46.364 139.236 46.7198C134.06 43.3554 127.979 41.4144 121.508 41.382C115.103 41.382 109.118 42.3525 103.942 45.6523L103.942 42.676C108.73 39.4087 114.391 37.5 120.441 37.5C128.14 37.5323 135.16 40.5733 140.563 45.5876Z" fill="#F4A15D"/>
<path opacity="0.32" d="M140.563 45.5876C140.433 45.717 140.272 45.8464 140.11 45.9758C134.513 42.1908 127.946 40.0233 120.894 39.991C114.78 39.991 109.021 41.6408 103.942 44.52L103.942 42.676C108.73 39.4087 114.391 37.5 120.441 37.5C128.14 37.5323 135.16 40.5733 140.563 45.5876Z" fill="#F4A15D"/>
<path opacity="0.37" d="M120.473 54.1607C128.14 54.1607 135.128 51.1198 140.563 46.0732C140.142 45.685 139.689 45.2968 139.236 44.9409C134.06 48.3053 127.979 50.2464 121.508 50.2787C115.103 50.2787 109.118 48.4024 103.942 45.1027L103.942 48.9847C108.762 52.2521 114.424 54.1607 120.473 54.1607Z" fill="#A5143A"/>
<path opacity="0.72" d="M120.473 54.1608C128.14 54.1608 135.128 51.1199 140.563 46.0733C140.433 45.9439 140.272 45.8145 140.11 45.6851C134.513 49.47 127.946 51.6375 120.894 51.6698C114.78 51.6698 109.021 50.02 103.942 47.1408L103.942 48.9848C108.762 52.2522 114.424 54.1608 120.473 54.1608Z" fill="#A5143A"/>
<path opacity="0.37" d="M140.563 46.0732C140.142 45.685 139.689 45.2968 139.236 44.9409C134.06 48.3053 127.979 50.2464 121.508 50.2787C115.103 50.2787 109.118 48.4024 103.942 45.1027L103.942 48.9847C108.73 52.2521 114.391 54.1607 120.441 54.1607C128.14 54.1284 135.16 51.0875 140.563 46.0732Z" fill="#A5143A"/>
<path opacity="0.72" d="M140.563 46.0733C140.433 45.9439 140.272 45.8145 140.11 45.6851C134.513 49.47 127.946 51.6375 120.894 51.6698C114.78 51.6698 109.021 50.02 103.942 47.1408L103.942 48.9848C108.73 52.2522 114.391 54.1608 120.441 54.1608C128.14 54.1285 135.16 51.0875 140.563 46.0733Z" fill="#A5143A"/>
<path d="M134.74 49.7602C136.843 48.5632 138.784 47.1398 140.596 45.49C138.816 43.8401 136.843 42.4167 134.74 41.2197L134.74 49.7602Z" fill="#601B23"/>
<path d="M103.975 43.2577C108.762 39.958 114.424 38.0493 120.473 38.0493C128.14 38.0493 135.16 41.0579 140.563 46.0722C135.16 51.0864 128.14 54.1274 120.473 54.1597C114.391 54.1597 108.762 52.2511 103.975 48.9837L103.975 43.2577Z" stroke="#601B23" stroke-width="1.94101" stroke-miterlimit="10" stroke-linecap="round" stroke-linejoin="round"/>
<path d="M79.0005 85.2807C79.0005 85.2807 78.1594 81.3663 72.5304 75.7374C70.4924 73.6993 66.3515 70.4967 63.2136 68.1351C61.9196 67.1646 62.5666 65.0942 64.1841 65.0618L98.6371 64.2854C99.6076 64.1237 100.61 64.3825 101.354 64.9971L111.901 73.4729L79.0005 85.2807Z" fill="#CF264D"/>
<path opacity="0.32" d="M63.5047 64.9971C63.7635 66.8411 65.3487 68.2321 67.225 68.2645L99.2517 68.6203C100.222 68.4586 101.225 68.7174 101.969 69.332L108.601 74.6375L111.901 73.4405L101.387 64.9971C100.61 64.3825 99.6399 64.1237 98.6694 64.2854L63.5047 64.9971Z" fill="#F4A15D"/>
<path opacity="0.72" d="M79.0005 85.2813L111.901 73.4735L106.045 68.7827C96.3402 71.306 86.4734 75.2851 76.6389 80.6552C78.6123 83.5021 79.0005 85.2813 79.0005 85.2813Z" fill="#A5143A"/>
<path d="M79.0005 85.2807C79.0005 85.2807 78.1594 81.3663 72.5304 75.7374C70.4924 73.6993 66.3515 70.4967 63.2136 68.1351C61.9196 67.1646 62.5666 65.0942 64.1841 65.0618L98.6371 64.2854C99.6076 64.1237 100.61 64.3825 101.354 64.9971L111.901 73.4729L79.0005 85.2807Z" stroke="#601B23" stroke-width="1.94101" stroke-miterlimit="10" stroke-linecap="round" stroke-linejoin="round"/>
<path d="M108.246 40.1855L108.246 50.8288" stroke="#601B23" stroke-width="1.29401" stroke-miterlimit="10" stroke-linecap="round" stroke-linejoin="round"/>
<path d="M103.975 43.2577C108.762 39.958 114.424 38.0493 120.473 38.0493C128.14 38.0493 135.16 41.0579 140.563 46.0722C135.16 51.0864 128.14 54.1274 120.473 54.1597C114.391 54.1597 108.762 52.2511 103.975 48.9837L103.975 43.2577Z" fill="#CF264D"/>
<path d="M103.975 43.2577C108.762 39.958 114.424 38.0493 120.473 38.0493C128.14 38.0493 135.16 41.0579 140.563 46.0722C135.16 51.0864 128.14 54.1274 120.473 54.1597C114.391 54.1597 108.762 52.2511 103.975 48.9837L103.975 43.2577Z" fill="#CF264D"/>
<path opacity="0.23" d="M140.563 45.5876C140.142 45.9758 139.689 46.364 139.236 46.7198C134.06 43.3554 127.979 41.4144 121.508 41.382C115.103 41.382 109.118 42.3525 103.942 45.6523L103.942 42.676C108.73 39.4087 114.391 37.5 120.441 37.5C128.14 37.5323 135.16 40.5733 140.563 45.5876Z" fill="#F4A15D"/>
<path opacity="0.32" d="M140.563 45.5876C140.433 45.717 140.272 45.8464 140.11 45.9758C134.513 42.1908 127.946 40.0233 120.894 39.991C114.78 39.991 109.021 41.6408 103.942 44.52L103.942 42.676C108.73 39.4087 114.391 37.5 120.441 37.5C128.14 37.5323 135.16 40.5733 140.563 45.5876Z" fill="#F4A15D"/>
<path opacity="0.37" d="M120.473 54.1607C128.14 54.1607 135.128 51.1198 140.563 46.0732C140.142 45.685 139.689 45.2968 139.236 44.9409C134.06 48.3053 127.979 50.2464 121.508 50.2787C115.103 50.2787 109.118 48.4024 103.942 45.1027L103.942 48.9847C108.762 52.2521 114.424 54.1607 120.473 54.1607Z" fill="#A5143A"/>
<path opacity="0.72" d="M120.473 54.1608C128.14 54.1608 135.128 51.1199 140.563 46.0733C140.433 45.9439 140.272 45.8145 140.11 45.6851C134.513 49.47 127.946 51.6375 120.894 51.6698C114.78 51.6698 109.021 50.02 103.942 47.1408L103.942 48.9848C108.762 52.2522 114.424 54.1608 120.473 54.1608Z" fill="#A5143A"/>
<path opacity="0.37" d="M140.563 46.0732C140.142 45.685 139.689 45.2968 139.236 44.9409C134.06 48.3053 127.979 50.2464 121.508 50.2787C115.103 50.2787 109.118 48.4024 103.942 45.1027L103.942 48.9847C108.73 52.2521 114.391 54.1607 120.441 54.1607C128.14 54.1284 135.16 51.0875 140.563 46.0732Z" fill="#A5143A"/>
<path opacity="0.72" d="M140.563 46.0733C140.433 45.9439 140.272 45.8145 140.11 45.6851C134.513 49.47 127.946 51.6375 120.894 51.6698C114.78 51.6698 109.021 50.02 103.942 47.1408L103.942 48.9848C108.73 52.2522 114.391 54.1608 120.441 54.1608C128.14 54.1285 135.16 51.0875 140.563 46.0733Z" fill="#A5143A"/>
<path d="M134.74 50.3437C136.843 49.1467 138.784 47.7233 140.596 46.0735C138.816 44.4236 136.843 43.0002 134.74 41.8032L134.74 50.3437Z" fill="#601B23"/>
<path d="M103.975 43.2577C108.762 39.958 114.424 38.0493 120.473 38.0493C128.14 38.0493 135.16 41.0579 140.563 46.0722C135.16 51.0864 128.14 54.1274 120.473 54.1597C114.391 54.1597 108.762 52.2511 103.975 48.9837L103.975 43.2577Z" stroke="#601B23" stroke-width="1.94101" stroke-miterlimit="10" stroke-linecap="round" stroke-linejoin="round"/>
<path d="M108.246 40.1855L108.246 50.8288" stroke="#601B23" stroke-width="1.29401" stroke-miterlimit="10" stroke-linecap="round" stroke-linejoin="round"/>
<path d="M113.325 133.419L109.217 143.965L129.242 143.965L154.507 111.583L116.625 111.583L112.517 119.411C114.716 123.584 115.169 128.663 113.325 133.419Z" fill="#C11A4D"/>
<path opacity="0.72" d="M109.216 143.964L113.292 133.483C116.074 133.353 118.921 133.547 121.768 134.065C126.038 134.841 130.05 136.297 133.673 138.303L129.241 143.964L109.216 143.964Z" fill="#A5143A"/>
<path opacity="0.23" d="M123.645 142.639L147.843 111.583L154.507 111.583L129.274 143.965L109.217 143.965L109.734 142.639L123.645 142.639Z" fill="#F4A15D"/>
<path opacity="0.72" d="M114.231 124.458C113.94 122.679 113.358 120.996 112.517 119.411L116.625 111.583L154.507 111.583L143.864 125.234C139.755 125.914 135.453 126.237 131.021 126.237C125.165 126.237 119.504 125.623 114.231 124.458Z" fill="#A5143A"/>
<path d="M113.325 133.419L109.217 143.965L129.242 143.965L154.507 111.583L116.625 111.583L112.517 119.411C114.716 123.584 115.169 128.663 113.325 133.419Z" stroke="#601B23" stroke-width="1.94101" stroke-miterlimit="10" stroke-linecap="round" stroke-linejoin="round"/>
<path d="M79.0005 105.404C79.0005 105.404 78.1594 109.318 72.5304 114.947C70.4924 116.985 66.3515 120.188 63.2136 122.549C61.9196 123.52 62.5666 125.59 64.1841 125.623L98.637 126.399C99.6076 126.561 100.61 126.302 101.354 125.687L111.901 117.212L79.0005 105.404Z" fill="#CF264D"/>
<path opacity="0.72" d="M63.5047 125.654C63.7635 123.81 65.3487 122.419 67.225 122.387L99.2517 122.031C100.222 122.193 101.225 121.934 101.969 121.319L108.601 116.014L111.901 117.211L101.354 125.686C100.578 126.301 99.6076 126.56 98.6371 126.398L63.5047 125.654Z" fill="#A5143A"/>
<path opacity="0.72" d="M79.0005 105.404L111.901 117.212L106.045 121.902C96.3402 119.379 86.4734 115.4 76.6389 110.03C78.6123 107.183 79.0005 105.404 79.0005 105.404Z" fill="#A5143A"/>
<path d="M79.0005 105.404C79.0005 105.404 78.1594 109.318 72.5304 114.947C70.4924 116.985 66.3515 120.188 63.2136 122.549C61.9196 123.52 62.5666 125.59 64.1841 125.623L98.637 126.399C99.6076 126.561 100.61 126.302 101.354 125.687L111.901 117.212L79.0005 105.404Z" stroke="#601B23" stroke-width="1.94101" stroke-miterlimit="10" stroke-linecap="round" stroke-linejoin="round"/>
<path d="M60.4974 105.242C64.3471 105.598 67.9703 105.08 77.5136 98.6104C79.034 97.5429 79.034 94.9872 77.5136 93.9196C67.9379 87.4496 64.3147 86.932 60.4974 87.2878C60.0121 87.3525 59.4622 88.226 59.6563 88.776C61.5649 92.4962 61.5649 100.034 59.6563 103.754C59.4622 104.304 59.9798 105.178 60.4974 105.242Z" fill="#4E8280"/>
<g opacity="0.32">
<g opacity="0.32">
<g opacity="0.32">
<path opacity="0.32" d="M60.4966 90.5528C64.3463 90.1969 67.9695 90.7145 77.5128 97.1846C77.8039 97.3787 78.0304 97.6375 78.1921 97.8963C79.0009 96.667 78.7744 94.7906 77.5128 93.9172C67.9371 87.4471 64.3139 86.9295 60.4966 87.2854C60.0113 87.3501 59.4614 88.2236 59.6555 88.7735C59.9143 89.3235 60.1731 89.9381 60.3672 90.5851C60.3995 90.5851 60.4319 90.5528 60.4966 90.5528Z" fill="#F4A15D"/>
</g>
<g opacity="0.32">
<path opacity="0.32" d="M61.0141 97.8979C60.8523 100.13 60.3994 102.233 59.6554 103.753C59.4613 104.239 59.9142 105.015 60.3671 105.209C60.9817 103.074 61.2082 100.421 61.0141 97.8979Z" fill="#F4A15D"/>
</g>
</g>
</g>
<path d="M77.5125 95.0504C77.6419 94.9534 77.739 94.8563 77.836 94.7593C79.033 95.9562 78.9036 98.1884 77.5125 99.1589C67.9369 105.629 64.3137 106.147 60.4963 105.791C60.0111 105.726 59.4611 104.853 59.6552 104.303C60.0434 103.559 60.3346 102.653 60.561 101.682C64.3783 102.038 68.0016 101.488 77.5125 95.0504Z" fill="#37605D"/>
<path d="M60.4974 105.242C64.3471 105.598 67.9703 105.08 77.5136 98.6104C79.034 97.5429 79.034 94.9872 77.5136 93.9196C67.9379 87.4496 64.3147 86.932 60.4974 87.2878C60.0121 87.3525 59.4622 88.226 59.6563 88.776C61.5649 92.4962 61.5649 100.034 59.6563 103.754C59.4622 104.304 59.9798 105.178 60.4974 105.242Z" stroke="#601B23" stroke-width="1.94101" stroke-miterlimit="10" stroke-linecap="round" stroke-linejoin="round"/>
<path d="M72.1103 103.56C97.0523 118.797 121.541 124.329 141.954 120.899C159.682 117.923 172.461 108.348 180.451 96.2486C172.461 84.1497 159.682 74.574 141.954 71.5978C121.541 68.1686 97.0523 73.7329 72.1103 88.9375L72.1103 103.56Z" fill="#CF264D"/>
<path opacity="0.23" d="M141.598 83.1792C157.644 85.1202 170.39 90.1668 179.933 96.9603C180.095 96.7339 180.256 96.4751 180.418 96.2486C172.428 84.1497 159.649 74.574 141.921 71.5978C121.508 68.1686 97.0194 73.7329 72.0774 88.9375L72.0774 92.0108C97.0194 83.5673 120.991 80.7205 141.598 83.1792Z" fill="#F4A15D"/>
<path opacity="0.37" d="M141.954 120.899C159.553 117.955 172.266 108.509 180.257 96.5068C176.666 98.739 171.49 101.586 164.923 103.98C152.986 108.347 143.151 108.832 136.972 109.091C109.184 110.256 78.4509 99.6125 72.0779 97.3803L72.0779 103.559C97.0522 118.796 121.541 124.328 141.954 120.899Z" fill="#A5143A"/>
<path opacity="0.72" d="M141.954 120.899C159.682 117.923 172.461 108.347 180.451 96.2482C180.257 95.9247 180.031 95.6336 179.837 95.3101C176.246 99.9038 172.396 103.398 168.708 106.05C135.581 129.86 85.9886 107.021 79.4215 103.883C83.8858 103.753 89.4177 103.171 95.5966 101.521C99.5433 100.454 103.005 99.1597 105.949 97.8657C94.9819 97.3805 84.0152 96.8952 73.0485 96.41L73.0485 100.421C72.725 100.324 72.4338 100.227 72.1103 100.098L72.1103 103.495C97.0523 118.796 121.541 124.328 141.954 120.899Z" fill="#A5143A"/>
<path opacity="0.32" d="M136.325 75.6728C141.501 76.1257 158.323 77.8079 172.137 88.1923C174.304 89.8422 177.248 92.3008 177.41 92.1067C177.668 91.8155 172.525 86.1219 167.058 82.0781C160.232 76.9992 151.853 73.2789 141.954 71.629C121.541 68.1999 97.0518 73.7641 72.1098 88.9687L72.1098 90.2951C80.4238 86.1219 87.929 83.3721 93.8491 81.4958C97.8282 80.2665 104.881 78.0991 114.327 76.7403C120.667 75.8669 127.461 74.8964 136.325 75.6728Z" fill="#F4A15D"/>
<path opacity="0.72" d="M129.662 97.996C129.662 102.856 133.601 106.795 138.461 106.795C143.32 106.795 147.26 102.856 147.26 97.996C147.26 93.1364 143.32 89.1968 138.461 89.1968C133.601 89.1968 129.662 93.1364 129.662 97.996Z" fill="#A5143A" stroke="#A5143A" stroke-width="1.94101" stroke-miterlimit="10" stroke-linecap="round" stroke-linejoin="round"/>
<path d="M72.1103 103.56C97.0523 118.797 121.541 124.329 141.954 120.899C159.682 117.923 172.461 108.348 180.451 96.2486C172.461 84.1497 159.682 74.574 141.954 71.5978C121.541 68.1686 97.0523 73.7329 72.1103 88.9375L72.1103 103.56Z" stroke="#601B23" stroke-width="1.94101" stroke-miterlimit="10" stroke-linecap="round" stroke-linejoin="round"/>
<path d="M138.409 104.938C143.207 105.716 147.726 102.459 148.505 97.6619C149.284 92.865 146.026 88.345 141.229 87.5667C136.432 86.788 131.912 90.0457 131.133 94.8426C130.355 99.6398 133.612 104.159 138.409 104.938Z" fill="#ABCFD8"/>
<path opacity="0.93" d="M134.999 95.051C134.999 97.981 137.375 100.356 140.305 100.356C143.235 100.356 145.61 97.981 145.61 95.051C145.61 92.1211 143.235 89.7456 140.305 89.7456C137.375 89.7456 134.999 92.1211 134.999 95.051Z" fill="#E2F0F2"/>
<path d="M138.409 104.938C143.207 105.716 147.726 102.459 148.505 97.6619C149.284 92.865 146.026 88.345 141.229 87.5667C136.432 86.788 131.912 90.0457 131.133 94.8426C130.355 99.6398 133.612 104.159 138.409 104.938Z" stroke="#601B23" stroke-width="1.94101" stroke-miterlimit="10" stroke-linecap="round" stroke-linejoin="round"/>
<path d="M56.9696 96.248C56.9696 96.6039 57.3578 96.895 57.8754 96.9274L97.4721 99.3537C101.548 99.6125 105.333 98.3185 106.239 96.4098C106.304 96.2804 106.304 96.151 106.239 96.0539C105.365 94.1453 101.581 92.8513 97.4721 93.1101L57.8754 95.5363C57.3578 95.601 56.9696 95.9245 56.9696 96.248Z" fill="#BC1D4E"/>
<path opacity="0.74" d="M56.9696 96.248C56.9696 96.6039 57.3578 96.895 57.8754 96.9274L97.4721 99.3537C101.548 99.6125 105.333 98.3185 106.239 96.4098C106.304 96.2804 106.304 96.151 106.239 96.0539C105.365 94.1453 101.581 92.8513 97.4721 93.1101L57.8754 95.5363C57.3578 95.601 56.9696 95.9245 56.9696 96.248Z" fill="#A5143A"/>
<g opacity="0.53">
<g opacity="0.53">
<g opacity="0.53">
<path opacity="0.53" d="M106.241 96.0842C105.368 94.1755 101.583 92.8815 97.4743 93.1403L57.8777 95.5666C57.4571 95.5989 57.1012 95.7931 57.0042 96.0519L106.241 96.0519L106.241 96.0842Z" fill="#F4A15D"/>
</g>
<g opacity="0.53">
<path opacity="0.53" d="M106.241 96.085L106.241 96.4408C106.305 96.3114 106.305 96.182 106.241 96.085Z" fill="#F4A15D"/>
</g>
</g>
</g>
<path d="M56.9696 96.248C56.9696 96.6039 57.3578 96.895 57.8754 96.9274L97.4721 99.3537C101.548 99.6125 105.333 98.3185 106.239 96.4098C106.304 96.2804 106.304 96.151 106.239 96.0539C105.365 94.1453 101.581 92.8513 97.4721 93.1101L57.8754 95.5363C57.3578 95.601 56.9696 95.9245 56.9696 96.248Z" stroke="#601B23" stroke-width="1.94101" stroke-miterlimit="10" stroke-linecap="round" stroke-linejoin="round"/>
<path d="M103.975 143.738C108.762 140.438 114.424 138.529 120.473 138.529C128.14 138.529 135.16 141.538 140.563 146.552C135.16 151.566 128.14 154.607 120.473 154.64C114.391 154.64 108.762 152.731 103.975 149.464L103.975 143.738Z" fill="#CF264D"/>
<path d="M103.975 143.738C108.762 140.438 114.424 138.529 120.473 138.529C128.14 138.529 135.16 141.538 140.563 146.552C135.16 151.566 128.14 154.607 120.473 154.64C114.391 154.64 108.762 152.731 103.975 149.464L103.975 143.738Z" fill="#CF264D"/>
<path opacity="0.23" d="M140.563 146.099C140.142 146.487 139.689 146.875 139.236 147.231C134.06 143.867 127.979 141.926 121.508 141.893C115.103 141.893 109.118 142.864 103.942 146.163L103.942 143.187C108.73 139.92 114.391 138.011 120.441 138.011C128.14 138.011 135.16 141.052 140.563 146.099Z" fill="#F4A15D"/>
<path opacity="0.32" d="M140.563 146.099C140.433 146.228 140.272 146.358 140.11 146.487C134.513 142.702 127.946 140.535 120.894 140.502C114.78 140.502 109.021 142.152 103.942 145.031L103.942 143.187C108.73 139.92 114.391 138.011 120.441 138.011C128.14 138.011 135.16 141.052 140.563 146.099Z" fill="#F4A15D"/>
<path opacity="0.37" d="M120.473 154.64C128.14 154.64 135.128 151.599 140.563 146.552C140.142 146.164 139.689 145.776 139.236 145.42C134.06 148.784 127.979 150.725 121.508 150.758C115.103 150.758 109.118 148.881 103.942 145.582L103.942 149.464C108.762 152.731 114.424 154.64 120.473 154.64Z" fill="#A5143A"/>
<path opacity="0.72" d="M120.473 154.64C128.14 154.64 135.128 151.599 140.563 146.552C140.433 146.423 140.272 146.293 140.11 146.164C134.513 149.949 127.946 152.116 120.894 152.149C114.78 152.149 109.021 150.499 103.942 147.62L103.942 149.464C108.762 152.731 114.424 154.64 120.473 154.64Z" fill="#A5143A"/>
<path opacity="0.37" d="M140.563 146.552C140.142 146.164 139.689 145.776 139.236 145.42C134.06 148.784 127.979 150.725 121.508 150.758C115.103 150.758 109.118 148.881 103.942 145.582L103.942 149.464C108.73 152.731 114.391 154.64 120.441 154.64C128.14 154.64 135.16 151.599 140.563 146.552Z" fill="#A5143A"/>
<path opacity="0.72" d="M140.563 146.552C140.433 146.423 140.272 146.293 140.11 146.164C134.513 149.949 127.946 152.116 120.894 152.149C114.78 152.149 109.021 150.499 103.942 147.62L103.942 149.464C108.73 152.731 114.391 154.64 120.441 154.64C128.14 154.64 135.16 151.599 140.563 146.552Z" fill="#A5143A"/>
<path d="M134.74 150.855C136.843 149.658 138.784 148.235 140.596 146.585C138.816 144.935 136.843 143.511 134.74 142.314L134.74 150.855Z" fill="#601B23"/>
<path d="M103.975 143.738C108.762 140.438 114.424 138.529 120.473 138.529C128.14 138.529 135.16 141.538 140.563 146.552C135.16 151.566 128.14 154.607 120.473 154.64C114.391 154.64 108.762 152.731 103.975 149.464L103.975 143.738Z" stroke="#601B23" stroke-width="1.94101" stroke-miterlimit="10" stroke-linecap="round" stroke-linejoin="round"/>
<path d="M108.246 141.28L108.246 151.923" stroke="#601B23" stroke-width="1.29401" stroke-miterlimit="10" stroke-linecap="round" stroke-linejoin="round"/>
<path opacity="0.41" d="M170.39 86.2847C170.39 86.2847 173.851 88.4845 179.674 95.9574C174.983 92.4959 172.039 91.8166 171.813 91.5901C171.392 89.3903 170.39 86.2847 170.39 86.2847Z" fill="white"/>
</svg>
