<svg width="94" height="55" viewBox="0 0 94 55" fill="none" xmlns="http://www.w3.org/2000/svg">
<g clip-path="url(#clip0_1178_7957)">
<path d="M57 38.75H37H28.25C28.25 38.75 29.1125 34.225 29.5 32.5C29.7 31.6125 30.35 29.8375 35.3 28.5125C36.725 28.125 38.5125 27.775 40.75 27.5C40.75 27.5 42 31.25 47 31.25C52 31.25 53.25 27.5 53.25 27.5C55.475 27.775 57.25 28.125 58.675 28.4875C63.65 29.8125 64.3 31.55 64.5 32.5C64.8625 34.225 65.75 38.75 65.75 38.75H57Z" fill="#FFF296"/>
<path d="M53.25 11.25C53.25 11.25 52 11.25 50.75 8.75C47 11.25 40.75 11.25 40.75 11.25C40.75 17.5 43.25 22.5 47 22.5C50.75 22.5 53.25 17.5 53.25 11.25ZM57 10L58.6875 28.4625L58.675 28.4875C57.25 28.125 55.475 27.775 53.25 27.5C53.25 27.5 52 31.25 47 31.25C42 31.25 40.75 27.5 40.75 27.5C38.5125 27.775 36.725 28.125 35.3 28.5125L35.25 28.3125L37 10C37.6625 4.45 42.1625 1.25 47 1.25C51.8375 1.25 56.3375 4.4875 57 10Z" fill="#FFF296"/>
<path d="M50.75 8.75C52 11.25 53.25 11.25 53.25 11.25C53.25 17.5 50.75 22.5 47 22.5C43.25 22.5 40.75 17.5 40.75 11.25C40.75 11.25 47 11.25 50.75 8.75Z" fill="#FFE6EA"/>
<path d="M28.25 38.75C28.25 38.75 29.1088 34.2237 29.5 32.5C29.76 31.3538 30.75 28.75 40.75 27.5C40.75 27.5 42 31.25 47 31.25C52 31.25 53.25 27.5 53.25 27.5C63.25 28.75 64.24 31.2763 64.5 32.5C64.8675 34.23 65.75 38.75 65.75 38.75M35.75 24.3762L37 10C37.6638 4.45375 42.1675 1.25 47 1.25C51.8325 1.25 56.3362 4.4925 57 10L58.25 24.375M37 37.5V38.75M57 37.5V38.75M50.7488 8.75C47 11.25 40.75 11.25 40.75 11.25C40.75 17.5 43.25 22.5 47 22.5C50.75 22.5 53.25 17.5 53.25 11.25" stroke="#181818" stroke-width="2" stroke-linecap="round" stroke-linejoin="round"/>
</g>
<g clip-path="url(#clip1_1178_7957)">
<path d="M30 38.75H10H1.25C1.25 38.75 2.1125 34.225 2.5 32.5C2.7 31.6125 3.35 29.8375 8.3 28.5125C9.725 28.125 11.5125 27.775 13.75 27.5C13.75 27.5 15 31.25 20 31.25C25 31.25 26.25 27.5 26.25 27.5C28.475 27.775 30.25 28.125 31.675 28.4875C36.65 29.8125 37.3 31.55 37.5 32.5C37.8625 34.225 38.75 38.75 38.75 38.75H30Z" fill="#FFF296"/>
<path d="M26.25 11.25C26.25 11.25 25 11.25 23.75 8.75C20 11.25 13.75 11.25 13.75 11.25C13.75 17.5 16.25 22.5 20 22.5C23.75 22.5 26.25 17.5 26.25 11.25ZM30 10L31.6875 28.4625L31.675 28.4875C30.25 28.125 28.475 27.775 26.25 27.5C26.25 27.5 25 31.25 20 31.25C15 31.25 13.75 27.5 13.75 27.5C11.5125 27.775 9.725 28.125 8.3 28.5125L8.25 28.3125L10 10C10.6625 4.45 15.1625 1.25 20 1.25C24.8375 1.25 29.3375 4.4875 30 10Z" fill="#FFF296"/>
<path d="M23.75 8.75C25 11.25 26.25 11.25 26.25 11.25C26.25 17.5 23.75 22.5 20 22.5C16.25 22.5 13.75 17.5 13.75 11.25C13.75 11.25 20 11.25 23.75 8.75Z" fill="#FFE6EA"/>
<path d="M1.25 38.75C1.25 38.75 2.10875 34.2237 2.5 32.5C2.76 31.3538 3.75 28.75 13.75 27.5C13.75 27.5 15 31.25 20 31.25C25 31.25 26.25 27.5 26.25 27.5C36.25 28.75 37.24 31.2763 37.5 32.5C37.8675 34.23 38.75 38.75 38.75 38.75M8.75 24.3762L10 10C10.6638 4.45375 15.1675 1.25 20 1.25C24.8325 1.25 29.3362 4.4925 30 10L31.25 24.375M10 37.5V38.75M30 37.5V38.75M23.7488 8.75C20 11.25 13.75 11.25 13.75 11.25C13.75 17.5 16.25 22.5 20 22.5C23.75 22.5 26.25 17.5 26.25 11.25" stroke="#181818" stroke-width="2" stroke-linecap="round" stroke-linejoin="round"/>
</g>
<g clip-path="url(#clip2_1178_7957)">
<path d="M84 38.75H64H55.25C55.25 38.75 56.1125 34.225 56.5 32.5C56.7 31.6125 57.35 29.8375 62.3 28.5125C63.725 28.125 65.5125 27.775 67.75 27.5C67.75 27.5 69 31.25 74 31.25C79 31.25 80.25 27.5 80.25 27.5C82.475 27.775 84.25 28.125 85.675 28.4875C90.65 29.8125 91.3 31.55 91.5 32.5C91.8625 34.225 92.75 38.75 92.75 38.75H84Z" fill="#FFF296"/>
<path d="M80.25 11.25C80.25 11.25 79 11.25 77.75 8.75C74 11.25 67.75 11.25 67.75 11.25C67.75 17.5 70.25 22.5 74 22.5C77.75 22.5 80.25 17.5 80.25 11.25ZM84 10L85.6875 28.4625L85.675 28.4875C84.25 28.125 82.475 27.775 80.25 27.5C80.25 27.5 79 31.25 74 31.25C69 31.25 67.75 27.5 67.75 27.5C65.5125 27.775 63.725 28.125 62.3 28.5125L62.25 28.3125L64 10C64.6625 4.45 69.1625 1.25 74 1.25C78.8375 1.25 83.3375 4.4875 84 10Z" fill="#FFF296"/>
<path d="M77.75 8.75C79 11.25 80.25 11.25 80.25 11.25C80.25 17.5 77.75 22.5 74 22.5C70.25 22.5 67.75 17.5 67.75 11.25C67.75 11.25 74 11.25 77.75 8.75Z" fill="#FFE6EA"/>
<path d="M55.25 38.75C55.25 38.75 56.1088 34.2237 56.5 32.5C56.76 31.3538 57.75 28.75 67.75 27.5C67.75 27.5 69 31.25 74 31.25C79 31.25 80.25 27.5 80.25 27.5C90.25 28.75 91.24 31.2763 91.5 32.5C91.8675 34.23 92.75 38.75 92.75 38.75M62.75 24.3762L64 10C64.6638 4.45375 69.1675 1.25 74 1.25C78.8325 1.25 83.3362 4.4925 84 10L85.25 24.375M64 37.5V38.75M84 37.5V38.75M77.7488 8.75C74 11.25 67.75 11.25 67.75 11.25C67.75 17.5 70.25 22.5 74 22.5C77.75 22.5 80.25 17.5 80.25 11.25" stroke="#181818" stroke-width="2" stroke-linecap="round" stroke-linejoin="round"/>
</g>
<g clip-path="url(#clip3_1178_7957)">
<path d="M41 53.75H21H12.25C12.25 53.75 13.1125 49.225 13.5 47.5C13.7 46.6125 14.35 44.8375 19.3 43.5125C20.725 43.125 22.5125 42.775 24.75 42.5C24.75 42.5 26 46.25 31 46.25C36 46.25 37.25 42.5 37.25 42.5C39.475 42.775 41.25 43.125 42.675 43.4875C47.65 44.8125 48.3 46.55 48.5 47.5C48.8625 49.225 49.75 53.75 49.75 53.75H41Z" fill="#FFF296"/>
<path d="M37.25 26.25C37.25 26.25 36 26.25 34.75 23.75C31 26.25 24.75 26.25 24.75 26.25C24.75 32.5 27.25 37.5 31 37.5C34.75 37.5 37.25 32.5 37.25 26.25ZM41 25L42.6875 43.4625L42.675 43.4875C41.25 43.125 39.475 42.775 37.25 42.5C37.25 42.5 36 46.25 31 46.25C26 46.25 24.75 42.5 24.75 42.5C22.5125 42.775 20.725 43.125 19.3 43.5125L19.25 43.3125L21 25C21.6625 19.45 26.1625 16.25 31 16.25C35.8375 16.25 40.3375 19.4875 41 25Z" fill="#FFF296"/>
<path d="M34.75 23.75C36 26.25 37.25 26.25 37.25 26.25C37.25 32.5 34.75 37.5 31 37.5C27.25 37.5 24.75 32.5 24.75 26.25C24.75 26.25 31 26.25 34.75 23.75Z" fill="#FFE6EA"/>
<path d="M12.25 53.75C12.25 53.75 13.1088 49.2237 13.5 47.5C13.76 46.3538 14.75 43.75 24.75 42.5C24.75 42.5 26 46.25 31 46.25C36 46.25 37.25 42.5 37.25 42.5C47.25 43.75 48.24 46.2763 48.5 47.5C48.8675 49.23 49.75 53.75 49.75 53.75M19.75 39.3762L21 25C21.6638 19.4538 26.1675 16.25 31 16.25C35.8325 16.25 40.3362 19.4925 41 25L42.25 39.375M21 52.5V53.75M41 52.5V53.75M34.7488 23.75C31 26.25 24.75 26.25 24.75 26.25C24.75 32.5 27.25 37.5 31 37.5C34.75 37.5 37.25 32.5 37.25 26.25" stroke="#181818" stroke-width="2" stroke-linecap="round" stroke-linejoin="round"/>
</g>
<g clip-path="url(#clip4_1178_7957)">
<path d="M71 53.75H51H42.25C42.25 53.75 43.1125 49.225 43.5 47.5C43.7 46.6125 44.35 44.8375 49.3 43.5125C50.725 43.125 52.5125 42.775 54.75 42.5C54.75 42.5 56 46.25 61 46.25C66 46.25 67.25 42.5 67.25 42.5C69.475 42.775 71.25 43.125 72.675 43.4875C77.65 44.8125 78.3 46.55 78.5 47.5C78.8625 49.225 79.75 53.75 79.75 53.75H71Z" fill="#FFF296"/>
<path d="M67.25 26.25C67.25 26.25 66 26.25 64.75 23.75C61 26.25 54.75 26.25 54.75 26.25C54.75 32.5 57.25 37.5 61 37.5C64.75 37.5 67.25 32.5 67.25 26.25ZM71 25L72.6875 43.4625L72.675 43.4875C71.25 43.125 69.475 42.775 67.25 42.5C67.25 42.5 66 46.25 61 46.25C56 46.25 54.75 42.5 54.75 42.5C52.5125 42.775 50.725 43.125 49.3 43.5125L49.25 43.3125L51 25C51.6625 19.45 56.1625 16.25 61 16.25C65.8375 16.25 70.3375 19.4875 71 25Z" fill="#FFF296"/>
<path d="M64.75 23.75C66 26.25 67.25 26.25 67.25 26.25C67.25 32.5 64.75 37.5 61 37.5C57.25 37.5 54.75 32.5 54.75 26.25C54.75 26.25 61 26.25 64.75 23.75Z" fill="#FFE6EA"/>
<path d="M42.25 53.75C42.25 53.75 43.1088 49.2237 43.5 47.5C43.76 46.3538 44.75 43.75 54.75 42.5C54.75 42.5 56 46.25 61 46.25C66 46.25 67.25 42.5 67.25 42.5C77.25 43.75 78.24 46.2763 78.5 47.5C78.8675 49.23 79.75 53.75 79.75 53.75M49.75 39.3762L51 25C51.6638 19.4538 56.1675 16.25 61 16.25C65.8325 16.25 70.3362 19.4925 71 25L72.25 39.375M51 52.5V53.75M71 52.5V53.75M64.7488 23.75C61 26.25 54.75 26.25 54.75 26.25C54.75 32.5 57.25 37.5 61 37.5C64.75 37.5 67.25 32.5 67.25 26.25" stroke="#181818" stroke-width="2" stroke-linecap="round" stroke-linejoin="round"/>
</g>
<defs>
<clipPath id="clip0_1178_7957">
<rect width="40" height="40" fill="white" transform="translate(27)"/>
</clipPath>
<clipPath id="clip1_1178_7957">
<rect width="40" height="40" fill="white"/>
</clipPath>
<clipPath id="clip2_1178_7957">
<rect width="40" height="40" fill="white" transform="translate(54)"/>
</clipPath>
<clipPath id="clip3_1178_7957">
<rect width="40" height="40" fill="white" transform="translate(11 15)"/>
</clipPath>
<clipPath id="clip4_1178_7957">
<rect width="40" height="40" fill="white" transform="translate(41 15)"/>
</clipPath>
</defs>
</svg>
