<svg width="192" height="192" viewBox="0 0 192 192" fill="none" xmlns="http://www.w3.org/2000/svg">
<path d="M108.748 71.5195C108.748 71.5195 113.579 78.2273 114.178 78.8262C114.777 79.4251 130.468 81.7409 130.468 81.7409L132.225 87.6102C132.225 87.6102 112.74 86.2128 110.944 84.416C109.147 82.6193 104.156 76.1511 104.156 76.1511L108.748 71.5195Z" fill="white"/>
<path d="M108.748 71.5195C108.748 71.5195 113.58 78.2273 114.178 78.8262C114.777 79.4251 132.266 81.7409 132.266 81.7409L134.022 87.6102C134.022 87.6102 112.781 86.2128 110.984 84.416C109.188 82.6193 104.197 76.1511 104.197 76.1511L108.748 71.5195Z" stroke="#153144" stroke-width="3.19418" stroke-miterlimit="10" stroke-linecap="round" stroke-linejoin="round"/>
<path d="M71.4554 150.855C58.2905 150.855 47.6188 140.183 47.6188 127.019C47.6188 113.854 58.2905 103.182 71.4554 103.182C84.6198 103.182 95.2919 113.854 95.2919 127.019C95.2919 140.183 84.6198 150.855 71.4554 150.855Z" fill="white"/>
<path d="M144.163 150.855C130.998 150.855 120.326 140.183 120.326 127.019C120.326 113.854 130.998 103.182 144.163 103.182C157.327 103.182 167.999 113.854 167.999 127.019C167.999 140.183 157.327 150.855 144.163 150.855Z" fill="white"/>
<path d="M144.163 150.855C130.998 150.855 120.326 140.183 120.326 127.019C120.326 113.854 130.998 103.182 144.163 103.182C157.327 103.182 167.999 113.854 167.999 127.019C167.999 140.183 157.327 150.855 144.163 150.855Z" stroke="#153144" stroke-width="3.19418" stroke-miterlimit="10" stroke-linecap="round" stroke-linejoin="round"/>
<path d="M144.163 142.87C152.907 142.87 160.014 135.763 160.014 127.019C160.014 118.275 152.907 111.167 144.163 111.167C135.419 111.167 128.312 118.275 128.312 127.019C128.312 135.763 135.419 142.87 144.163 142.87Z" fill="#90CAF8"/>
<path d="M158.098 134.525C159.296 132.289 159.974 129.734 159.974 127.019C159.974 121.708 157.379 117.037 153.346 114.162" stroke="#153144" stroke-width="2.39564" stroke-miterlimit="10" stroke-linecap="round" stroke-linejoin="round"/>
<path d="M134.939 119.591C133.302 121.628 132.344 124.183 132.344 127.018C132.344 128.495 132.623 129.893 133.102 131.17" stroke="#153144" stroke-width="2.39564" stroke-miterlimit="10" stroke-linecap="round" stroke-linejoin="round"/>
<path d="M144.162 127.019L132.264 87.6104" stroke="#153144" stroke-width="3.19418" stroke-miterlimit="10" stroke-linecap="round" stroke-linejoin="round"/>
<path d="M144.163 129.813C145.68 129.813 146.958 128.536 146.958 127.019C146.958 125.501 145.68 124.224 144.163 124.224C142.646 124.224 141.368 125.501 141.368 127.019C141.368 128.536 142.646 129.813 144.163 129.813Z" fill="#EF2C54"/>
<path d="M144.163 129.813C145.68 129.813 146.958 128.536 146.958 127.019C146.958 125.501 145.68 124.224 144.163 124.224C142.646 124.224 141.368 125.501 141.368 127.019C141.368 128.536 142.646 129.813 144.163 129.813Z" stroke="#153144" stroke-width="3.19418" stroke-miterlimit="10" stroke-linecap="round" stroke-linejoin="round"/>
<path d="M71.4554 150.855C58.2905 150.855 47.6188 140.183 47.6188 127.019C47.6188 113.854 58.2905 103.182 71.4554 103.182C84.6198 103.182 95.2919 113.854 95.2919 127.019C95.2919 140.183 84.6198 150.855 71.4554 150.855Z" stroke="#153144" stroke-width="3.19418" stroke-miterlimit="10" stroke-linecap="round" stroke-linejoin="round"/>
<path d="M71.4554 142.87C80.1995 142.87 87.3065 135.763 87.3065 127.019C87.3065 118.275 80.1995 111.167 71.4554 111.167C62.7113 111.167 55.6043 118.275 55.6043 127.019C55.6043 135.763 62.7113 142.87 71.4554 142.87Z" fill="#90CAF8"/>
<path d="M68.5007 111.447C61.1541 112.844 55.6042 119.273 55.6042 127.018" stroke="#153144" stroke-width="2.39564" stroke-miterlimit="10" stroke-linecap="round" stroke-linejoin="round"/>
<path d="M73.651 138.677C76.6456 138.118 79.2408 136.401 80.9976 134.045" stroke="#153144" stroke-width="2.39564" stroke-miterlimit="10" stroke-linecap="round" stroke-linejoin="round"/>
<path d="M132.703 94.9965L110.783 127.817L71.2951 127.777L93.2151 94.9565L132.703 94.9965Z" stroke="#153144" stroke-width="3.19418" stroke-miterlimit="10" stroke-linecap="round" stroke-linejoin="round"/>
<path d="M109.186 66.4483C103.408 66.4483 98.725 61.7648 98.725 55.9873C98.725 50.2102 103.408 45.5264 109.186 45.5264C114.963 45.5264 119.647 50.2102 119.647 55.9873C119.647 61.7648 114.963 66.4483 109.186 66.4483Z" fill="white"/>
<path d="M104.116 51.7148L111.862 66.448" stroke="#153144" stroke-width="3.19418" stroke-miterlimit="10" stroke-linecap="round" stroke-linejoin="round"/>
<path d="M109.186 66.4483C103.408 66.4483 98.725 61.7648 98.725 55.9873C98.725 50.2102 103.408 45.5264 109.186 45.5264C114.963 45.5264 119.647 50.2102 119.647 55.9873C119.647 61.7648 114.963 66.4483 109.186 66.4483Z" stroke="#153144" stroke-width="3.19418" stroke-miterlimit="10" stroke-linecap="round" stroke-linejoin="round"/>
<path d="M95.8106 54.391C94.9722 50.5579 95.4912 47.0443 97.5275 44.6088C101.88 39.4182 111.941 40.8556 120.406 47.9627C122.722 49.9191 124.678 52.0752 126.275 54.351H95.8106V54.391Z" fill="#CE2951"/>
<path d="M97.5279 44.6078C100.203 41.4136 104.994 40.7349 110.265 42.332C107.43 42.4917 105.034 43.4899 103.437 45.4064C101.561 47.6822 100.962 50.8365 101.561 54.39H95.811C95.0125 50.5171 95.4916 47.0434 97.5279 44.6078Z" fill="#AD254C"/>
<path d="M95.8106 54.391C94.9722 50.5579 95.4912 47.0443 97.5275 44.6088C101.88 39.4182 111.941 40.8556 120.406 47.9627C122.722 49.9191 124.678 52.0752 126.275 54.351H95.8106V54.391Z" stroke="#153144" stroke-width="3.19418" stroke-miterlimit="10" stroke-linecap="round" stroke-linejoin="round"/>
<path d="M104.994 100.546C104.994 100.546 108.029 103.022 109.147 104.14C110.265 105.258 109.746 126.22 109.746 126.22H104.076C104.076 126.22 102.159 109.53 101.401 108.771C100.682 108.053 96.5696 105.298 96.5696 105.298L104.994 100.546Z" fill="white"/>
<path d="M104.994 100.546C104.994 100.546 108.029 103.022 109.147 104.14C110.265 105.258 109.746 126.22 109.746 126.22H104.076C104.076 126.22 102.159 109.53 101.401 108.771C100.682 108.053 96.5696 105.298 96.5696 105.298L104.994 100.546Z" stroke="#153144" stroke-width="3.19418" stroke-miterlimit="10" stroke-linecap="round" stroke-linejoin="round"/>
<path d="M109.745 71.3994L104.475 78.187L101.999 75.2723L93.3349 89.9256L73.6508 91.1234C73.6508 91.1234 86.3876 70.4811 92.4964 65.9693C98.6053 61.4575 101.839 63.5337 103.237 64.8912C104.594 66.2488 109.745 71.3994 109.745 71.3994Z" fill="#90CAF8"/>
<path d="M86.1879 90.3254C87.3059 78.3472 94.1734 68.4852 103.317 64.9316C104.794 66.4089 109.745 71.3599 109.745 71.3599L104.475 78.1476L101.999 75.2329L93.3349 89.8862L86.1879 90.3254Z" fill="#74BAE8"/>
<path d="M109.745 71.3994L104.475 78.187L101.999 75.2723L93.3349 91.1234H73.6508C73.6508 91.1234 86.3876 70.4811 92.4964 65.9693C98.6053 61.4575 101.839 63.5337 103.237 64.8912C104.594 66.2488 109.745 71.3994 109.745 71.3994Z" stroke="#153144" stroke-width="3.19418" stroke-miterlimit="10" stroke-linecap="round" stroke-linejoin="round"/>
<path d="M101.64 132.688H115.056V130.492C115.056 128.536 113.539 126.939 111.622 126.819L101.68 126.26V132.688H101.64Z" fill="#153144"/>
<path d="M101.64 132.688H115.056V130.492C115.056 128.536 113.539 126.939 111.622 126.819L101.68 126.26V132.688H101.64Z" stroke="#153144" stroke-width="3.19418" stroke-miterlimit="10" stroke-linecap="round" stroke-linejoin="round"/>
<path d="M105.872 99.868L96.6092 106.935C96.6092 106.935 76.6855 100.147 73.651 91.084C88.8234 91.084 93.3352 91.084 93.3352 91.084L105.872 99.868Z" fill="#CE2951"/>
<path opacity="0.63" d="M86.5475 91.084C91.5784 91.084 93.3352 91.084 93.3352 91.084L105.872 99.868L103.636 101.585C103.157 101.505 102.678 101.425 102.159 101.345C94.3333 99.7482 88.2245 95.5558 86.5475 91.084Z" fill="#AD254C"/>
<path d="M105.872 99.868L96.6092 106.935C96.6092 106.935 76.6855 100.147 73.651 91.084C88.8234 91.084 93.3352 91.084 93.3352 91.084L105.872 99.868Z" stroke="#153144" stroke-width="3.19418" stroke-miterlimit="10" stroke-linecap="round" stroke-linejoin="round"/>
<path d="M71.2965 130.612C72.8138 130.612 74.0914 129.334 74.0914 127.817C74.0914 126.3 72.8138 125.022 71.2965 125.022C69.7793 125.022 68.5016 126.3 68.5016 127.817C68.5016 129.334 69.7793 130.612 71.2965 130.612Z" fill="#EF2C54"/>
<path d="M71.2965 130.612C72.8138 130.612 74.0914 129.334 74.0914 127.817C74.0914 126.3 72.8138 125.022 71.2965 125.022C69.7793 125.022 68.5016 126.3 68.5016 127.817C68.5016 129.334 69.7793 130.612 71.2965 130.612Z" stroke="#153144" stroke-width="3.19418" stroke-miterlimit="10" stroke-linecap="round" stroke-linejoin="round"/>
<path d="M76.7659 45.2471H73.6515" stroke="#153144" stroke-width="3.19418" stroke-miterlimit="10" stroke-linecap="round" stroke-linejoin="round"/>
<path d="M101.641 45.2471H81.9963" stroke="#153144" stroke-width="3.19418" stroke-miterlimit="10" stroke-linecap="round" stroke-linejoin="round"/>
<path d="M61.2336 133.486H32.0867" stroke="#153144" stroke-width="3.19418" stroke-miterlimit="10" stroke-linecap="round" stroke-linejoin="round"/>
<path d="M26.6573 118.114H23.8624" stroke="#153144" stroke-width="3.19418" stroke-miterlimit="10" stroke-linecap="round" stroke-linejoin="round"/>
<path d="M43.0667 118.114H32.0867" stroke="#153144" stroke-width="3.19418" stroke-miterlimit="10" stroke-linecap="round" stroke-linejoin="round"/>
<path d="M76.1667 67.5269H60.8745" stroke="#153144" stroke-width="3.19418" stroke-miterlimit="10" stroke-linecap="round" stroke-linejoin="round"/>
</svg>
