<svg width="40" height="40" viewBox="0 0 40 40" fill="none" xmlns="http://www.w3.org/2000/svg">
<g clip-path="url(#clip0_1178_7913)">
<path d="M30 38.75H10H1.25C1.25 38.75 2.1125 34.225 2.5 32.5C2.7 31.6125 3.35 29.8375 8.3 28.5125C9.725 28.125 11.5125 27.775 13.75 27.5C13.75 27.5 15 31.25 20 31.25C25 31.25 26.25 27.5 26.25 27.5C28.475 27.775 30.25 28.125 31.675 28.4875C36.65 29.8125 37.3 31.55 37.5 32.5C37.8625 34.225 38.75 38.75 38.75 38.75H30Z" fill="#FFF296"/>
<path d="M26.25 11.25C26.25 11.25 25 11.25 23.75 8.75C20 11.25 13.75 11.25 13.75 11.25C13.75 17.5 16.25 22.5 20 22.5C23.75 22.5 26.25 17.5 26.25 11.25ZM30 10L31.6875 28.4625L31.675 28.4875C30.25 28.125 28.475 27.775 26.25 27.5C26.25 27.5 25 31.25 20 31.25C15 31.25 13.75 27.5 13.75 27.5C11.5125 27.775 9.725 28.125 8.3 28.5125L8.25 28.3125L10 10C10.6625 4.45 15.1625 1.25 20 1.25C24.8375 1.25 29.3375 4.4875 30 10Z" fill="#FFF296"/>
<path d="M23.75 8.75C25 11.25 26.25 11.25 26.25 11.25C26.25 17.5 23.75 22.5 20 22.5C16.25 22.5 13.75 17.5 13.75 11.25C13.75 11.25 20 11.25 23.75 8.75Z" fill="#FFE6EA"/>
<path d="M1.25 38.75C1.25 38.75 2.10875 34.2237 2.5 32.5C2.76 31.3538 3.75 28.75 13.75 27.5C13.75 27.5 15 31.25 20 31.25C25 31.25 26.25 27.5 26.25 27.5C36.25 28.75 37.24 31.2763 37.5 32.5C37.8675 34.23 38.75 38.75 38.75 38.75M8.75 24.3762L10 10C10.6638 4.45375 15.1675 1.25 20 1.25C24.8325 1.25 29.3362 4.4925 30 10L31.25 24.375M10 37.5V38.75M30 37.5V38.75M23.7488 8.75C20 11.25 13.75 11.25 13.75 11.25C13.75 17.5 16.25 22.5 20 22.5C23.75 22.5 26.25 17.5 26.25 11.25" stroke="#181818" stroke-width="2" stroke-linecap="round" stroke-linejoin="round"/>
</g>
<defs>
<clipPath id="clip0_1178_7913">
<rect width="40" height="40" fill="white"/>
</clipPath>
</defs>
</svg>
