<svg width="70" height="44" viewBox="0 0 70 44" fill="none" xmlns="http://www.w3.org/2000/svg">
<g clip-path="url(#clip0_1178_7936)">
<path d="M30 38.75H10H1.25C1.25 38.75 2.1125 34.225 2.5 32.5C2.7 31.6125 3.35 29.8375 8.3 28.5125C9.725 28.125 11.5125 27.775 13.75 27.5C13.75 27.5 15 31.25 20 31.25C25 31.25 26.25 27.5 26.25 27.5C28.475 27.775 30.25 28.125 31.675 28.4875C36.65 29.8125 37.3 31.55 37.5 32.5C37.8625 34.225 38.75 38.75 38.75 38.75H30Z" fill="#FFF296"/>
<path d="M26.25 11.25C26.25 11.25 25 11.25 23.75 8.75C20 11.25 13.75 11.25 13.75 11.25C13.75 17.5 16.25 22.5 20 22.5C23.75 22.5 26.25 17.5 26.25 11.25ZM30 10L31.6875 28.4625L31.675 28.4875C30.25 28.125 28.475 27.775 26.25 27.5C26.25 27.5 25 31.25 20 31.25C15 31.25 13.75 27.5 13.75 27.5C11.5125 27.775 9.725 28.125 8.3 28.5125L8.25 28.3125L10 10C10.6625 4.45 15.1625 1.25 20 1.25C24.8375 1.25 29.3375 4.4875 30 10Z" fill="#FFF296"/>
<path d="M23.75 8.75C25 11.25 26.25 11.25 26.25 11.25C26.25 17.5 23.75 22.5 20 22.5C16.25 22.5 13.75 17.5 13.75 11.25C13.75 11.25 20 11.25 23.75 8.75Z" fill="#FFE6EA"/>
<path d="M1.25 38.75C1.25 38.75 2.10875 34.2237 2.5 32.5C2.76 31.3538 3.75 28.75 13.75 27.5C13.75 27.5 15 31.25 20 31.25C25 31.25 26.25 27.5 26.25 27.5C36.25 28.75 37.24 31.2763 37.5 32.5C37.8675 34.23 38.75 38.75 38.75 38.75M8.75 24.3762L10 10C10.6638 4.45375 15.1675 1.25 20 1.25C24.8325 1.25 29.3362 4.4925 30 10L31.25 24.375M10 37.5V38.75M30 37.5V38.75M23.7488 8.75C20 11.25 13.75 11.25 13.75 11.25C13.75 17.5 16.25 22.5 20 22.5C23.75 22.5 26.25 17.5 26.25 11.25" stroke="#181818" stroke-width="2" stroke-linecap="round" stroke-linejoin="round"/>
</g>
<g clip-path="url(#clip1_1178_7936)">
<path d="M60 38.75H40H31.25C31.25 38.75 32.1125 34.225 32.5 32.5C32.7 31.6125 33.35 29.8375 38.3 28.5125C39.725 28.125 41.5125 27.775 43.75 27.5C43.75 27.5 45 31.25 50 31.25C55 31.25 56.25 27.5 56.25 27.5C58.475 27.775 60.25 28.125 61.675 28.4875C66.65 29.8125 67.3 31.55 67.5 32.5C67.8625 34.225 68.75 38.75 68.75 38.75H60Z" fill="#FFF296"/>
<path d="M56.25 11.25C56.25 11.25 55 11.25 53.75 8.75C50 11.25 43.75 11.25 43.75 11.25C43.75 17.5 46.25 22.5 50 22.5C53.75 22.5 56.25 17.5 56.25 11.25ZM60 10L61.6875 28.4625L61.675 28.4875C60.25 28.125 58.475 27.775 56.25 27.5C56.25 27.5 55 31.25 50 31.25C45 31.25 43.75 27.5 43.75 27.5C41.5125 27.775 39.725 28.125 38.3 28.5125L38.25 28.3125L40 10C40.6625 4.45 45.1625 1.25 50 1.25C54.8375 1.25 59.3375 4.4875 60 10Z" fill="#FFF296"/>
<path d="M53.75 8.75C55 11.25 56.25 11.25 56.25 11.25C56.25 17.5 53.75 22.5 50 22.5C46.25 22.5 43.75 17.5 43.75 11.25C43.75 11.25 50 11.25 53.75 8.75Z" fill="#FFE6EA"/>
<path d="M31.25 38.75C31.25 38.75 32.1088 34.2237 32.5 32.5C32.76 31.3538 33.75 28.75 43.75 27.5C43.75 27.5 45 31.25 50 31.25C55 31.25 56.25 27.5 56.25 27.5C66.25 28.75 67.24 31.2763 67.5 32.5C67.8675 34.23 68.75 38.75 68.75 38.75M38.75 24.3762L40 10C40.6638 4.45375 45.1675 1.25 50 1.25C54.8325 1.25 59.3362 4.4925 60 10L61.25 24.375M40 37.5V38.75M60 37.5V38.75M53.7488 8.75C50 11.25 43.75 11.25 43.75 11.25C43.75 17.5 46.25 22.5 50 22.5C53.75 22.5 56.25 17.5 56.25 11.25" stroke="#181818" stroke-width="2" stroke-linecap="round" stroke-linejoin="round"/>
</g>
<g clip-path="url(#clip2_1178_7936)">
<path d="M45 42.75H25H16.25C16.25 42.75 17.1125 38.225 17.5 36.5C17.7 35.6125 18.35 33.8375 23.3 32.5125C24.725 32.125 26.5125 31.775 28.75 31.5C28.75 31.5 30 35.25 35 35.25C40 35.25 41.25 31.5 41.25 31.5C43.475 31.775 45.25 32.125 46.675 32.4875C51.65 33.8125 52.3 35.55 52.5 36.5C52.8625 38.225 53.75 42.75 53.75 42.75H45Z" fill="#FFF296"/>
<path d="M41.25 15.25C41.25 15.25 40 15.25 38.75 12.75C35 15.25 28.75 15.25 28.75 15.25C28.75 21.5 31.25 26.5 35 26.5C38.75 26.5 41.25 21.5 41.25 15.25ZM45 14L46.6875 32.4625L46.675 32.4875C45.25 32.125 43.475 31.775 41.25 31.5C41.25 31.5 40 35.25 35 35.25C30 35.25 28.75 31.5 28.75 31.5C26.5125 31.775 24.725 32.125 23.3 32.5125L23.25 32.3125L25 14C25.6625 8.45 30.1625 5.25 35 5.25C39.8375 5.25 44.3375 8.4875 45 14Z" fill="#FFF296"/>
<path d="M38.75 12.75C40 15.25 41.25 15.25 41.25 15.25C41.25 21.5 38.75 26.5 35 26.5C31.25 26.5 28.75 21.5 28.75 15.25C28.75 15.25 35 15.25 38.75 12.75Z" fill="#FFE6EA"/>
<path d="M16.25 42.75C16.25 42.75 17.1088 38.2237 17.5 36.5C17.76 35.3538 18.75 32.75 28.75 31.5C28.75 31.5 30 35.25 35 35.25C40 35.25 41.25 31.5 41.25 31.5C51.25 32.75 52.24 35.2763 52.5 36.5C52.8675 38.23 53.75 42.75 53.75 42.75M23.75 28.3762L25 14C25.6638 8.45375 30.1675 5.25 35 5.25C39.8325 5.25 44.3362 8.4925 45 14L46.25 28.375M25 41.5V42.75M45 41.5V42.75M38.7488 12.75C35 15.25 28.75 15.25 28.75 15.25C28.75 21.5 31.25 26.5 35 26.5C38.75 26.5 41.25 21.5 41.25 15.25" stroke="#181818" stroke-width="2" stroke-linecap="round" stroke-linejoin="round"/>
</g>
<defs>
<clipPath id="clip0_1178_7936">
<rect width="40" height="40" fill="white"/>
</clipPath>
<clipPath id="clip1_1178_7936">
<rect width="40" height="40" fill="white" transform="translate(30)"/>
</clipPath>
<clipPath id="clip2_1178_7936">
<rect width="40" height="40" fill="white" transform="translate(15 4)"/>
</clipPath>
</defs>
</svg>
