<svg width="192" height="192" viewBox="0 0 192 192" fill="none" xmlns="http://www.w3.org/2000/svg">
<path d="M16.6355 108.963C15.9208 102.869 16.9364 89.3286 19.9078 80.339C21.8637 74.4337 23.6692 66.3468 31.7184 61.8708C38.3384 58.147 81.2177 55.1004 105.215 57.5452C118.605 58.8993 129.701 72.0264 136.622 82.9343C159.416 87.1094 159.98 87.1094 165.321 88.7644C170.662 90.3818 175.891 94.4816 175.891 100.613C175.891 104.562 175.891 115.545 175.891 115.545H17.2749C17.0492 111.784 16.8611 112.687 16.6355 108.963Z" fill="#4DCBAB"/>
<path opacity="0.49" d="M165.699 87.5984C160.358 85.981 159.793 85.981 137 81.7683C130.079 70.8604 118.983 57.7333 105.592 56.3792C81.5951 53.9343 38.7157 56.981 32.0958 60.7048C30.2903 61.7203 28.8234 62.924 27.5446 64.2028C27.5446 64.2028 27.5822 64.2028 27.5822 64.1652C34.2021 60.4415 77.0815 57.3948 101.079 59.8397C113.679 61.1185 125.151 72.8539 132.185 83.3104C133.013 84.5517 134.329 85.3792 135.796 85.6425C156.22 89.4038 155.994 89.4414 161.185 91.0212C166.526 92.6386 171.754 96.7384 171.754 102.869C171.754 105.39 171.754 110.768 171.754 114.304H176.268C176.268 114.304 176.268 103.321 176.268 99.3714C176.268 93.3156 171.04 89.2158 165.699 87.5984Z" fill="#4DCBAB"/>
<path opacity="0.21" d="M102.92 80.9404V114.454" stroke="#72757C" stroke-width="1.1284" stroke-miterlimit="10" stroke-linecap="round"/>
<path opacity="0.21" d="M50.2623 80.9404L49.3972 114.454" stroke="#72757C" stroke-width="1.1284" stroke-miterlimit="10" stroke-linecap="round"/>
<path opacity="0.2" d="M31.3805 80.3391C33.3364 74.4338 35.1419 66.347 43.1912 61.871C47.7424 59.3132 69.3325 57.094 90.2079 56.7179C66.5115 56.2665 37.1354 58.8243 31.7191 61.871C23.6698 66.3846 21.8643 74.4338 19.9084 80.3391C16.937 89.3288 15.959 102.87 16.6361 108.963C16.8618 112.687 17.0498 111.784 17.2755 115.545H28.7476C28.5219 111.784 28.3338 112.687 28.1082 108.963C27.3935 102.87 28.4091 89.3288 31.3805 80.3391Z" fill="#72757C"/>
<path d="M16.6355 108.963C15.9208 102.869 16.9364 89.3286 19.9078 80.339C21.8637 74.4337 23.6692 66.3468 31.7184 61.8708C38.3384 58.147 81.2177 55.1004 105.215 57.5452C117.778 58.8241 128.31 70.4466 135.268 80.8656C136.171 82.182 137.563 83.1224 139.142 83.3857C159.454 87.1094 160.168 87.1846 165.321 88.7268C170.662 90.3442 175.891 94.444 175.891 100.575C175.891 104.524 175.891 115.508 175.891 115.508H17.2749C17.0492 111.784 16.8611 112.687 16.6355 108.963Z" stroke="#135677" stroke-width="3.00907" stroke-miterlimit="10" stroke-linecap="round" stroke-linejoin="round"/>
<path d="M102.958 83.0472C100.175 74.0576 95.3605 66.234 91.8624 61.3066C96.7146 61.4947 101.002 61.8332 104.689 62.247C115.822 63.5634 125 74.0952 131.131 83.4986L102.958 83.0472Z" fill="#FFC88D"/>
<path opacity="0.2" d="M108.638 75.5997C106.569 71.8384 109.541 67.3248 113.791 67.7385C114.581 67.8137 115.333 67.889 116.085 68.0018C116.725 68.077 117.364 68.1899 117.966 68.3403C113.979 65.1432 109.503 62.8488 104.689 62.2846C101.002 61.8332 96.6769 61.5323 91.8624 61.3442C95.3605 66.2716 100.175 74.0952 102.958 83.0848L112.324 83.2353C111.196 80.4895 109.917 77.9318 108.638 75.5997Z" fill="#FFBF73"/>
<path d="M102.958 83.0472C100.175 74.0576 95.3605 66.234 91.8624 61.3066C96.7146 61.4947 101.002 61.8332 104.689 62.247C115.822 63.5634 125 74.0952 131.131 83.4986L102.958 83.0472Z" stroke="#135677" stroke-width="3.00907" stroke-miterlimit="10" stroke-linecap="round" stroke-linejoin="round"/>
<path d="M54.0237 82.6711L55.6411 62.6607C64.405 62.0213 74.0716 61.7204 82.9484 61.758C83.8887 61.758 84.8291 61.758 85.7318 61.7956C89.117 66.0083 94.6838 73.7943 97.9562 82.9344L54.0237 82.6711Z" fill="#FFC88D"/>
<path opacity="0.2" d="M60.8317 72.7788C61.095 69.3183 64.2545 66.5726 68.2039 66.3469C74.7111 66.0084 81.4439 65.8579 87.8005 65.8955C88.1391 65.8955 88.4776 65.8955 88.8537 65.8955C87.7253 64.2781 86.6721 62.8864 85.7318 61.758C84.7915 61.758 83.8887 61.7204 82.9484 61.7204C74.0716 61.6828 64.405 61.9837 55.6411 62.6231L54.0237 82.6335L60.0418 82.6711L60.8317 72.7788Z" fill="#FFBF73"/>
<path d="M54.0237 82.6711L55.6411 62.6607C64.405 62.0213 74.0716 61.7204 82.9484 61.758C83.8887 61.758 84.8291 61.758 85.7318 61.7956C89.117 66.0083 94.6838 73.7943 97.9562 82.9344L54.0237 82.6711Z" stroke="#135677" stroke-width="3.00907" stroke-miterlimit="10" stroke-linecap="round" stroke-linejoin="round"/>
<path d="M43.4154 120.473H15.8072C12.0834 120.473 9.03674 117.426 9.03674 113.703C9.03674 109.979 12.0834 106.932 15.8072 106.932H43.4154V120.473Z" fill="white"/>
<path opacity="0.2" d="M17.0869 115.508C17.0869 111.784 20.1336 108.738 23.8573 108.738H43.3787V106.97H15.7704C12.0467 106.97 9 110.016 9 113.74C9 117.464 12.0467 120.511 15.7704 120.511H19.3061C17.952 119.269 17.0869 117.464 17.0869 115.508Z" fill="#72757C"/>
<path d="M43.4154 120.473H15.8072C12.0834 120.473 9.03674 117.426 9.03674 113.703C9.03674 109.979 12.0834 106.932 15.8072 106.932H43.4154V120.473Z" stroke="#135677" stroke-width="3.00907" stroke-miterlimit="10" stroke-linecap="round" stroke-linejoin="round"/>
<path d="M177.019 120.473H154.413V109.188H177.019C180.14 109.188 182.661 111.709 182.661 114.83C182.661 117.952 180.14 120.473 177.019 120.473Z" fill="white"/>
<path opacity="0.2" d="M155.879 113.552H178.522C180.14 113.552 181.606 114.266 182.66 115.357C182.66 115.169 182.697 115.019 182.697 114.83C182.697 111.709 180.177 109.188 177.055 109.188H154.45V120.473H155.954V113.552H155.879Z" fill="#72757C"/>
<path d="M177.019 120.473H154.413V109.188H177.019C180.14 109.188 182.661 111.709 182.661 114.83C182.661 117.952 180.14 120.473 177.019 120.473Z" stroke="#135677" stroke-width="3.00907" stroke-miterlimit="10" stroke-linecap="round" stroke-linejoin="round"/>
<path d="M125.64 114.455H55.8669V120.473H125.64V114.455Z" fill="white"/>
<path opacity="0.2" d="M125.64 114.455H55.8669V117.464H125.64V114.455Z" fill="#72757C"/>
<path d="M125.64 114.455H55.8669V120.473H125.64V114.455Z" stroke="#135677" stroke-width="3.00907" stroke-miterlimit="10" stroke-linecap="round" stroke-linejoin="round"/>
<path d="M142.528 135.819C151.772 135.819 159.266 128.325 159.266 119.081C159.266 109.836 151.772 102.343 142.528 102.343C133.284 102.343 125.79 109.836 125.79 119.081C125.79 128.325 133.284 135.819 142.528 135.819Z" fill="#82818C"/>
<path d="M142.528 135.819C151.772 135.819 159.266 128.325 159.266 119.081C159.266 109.836 151.772 102.343 142.528 102.343C133.284 102.343 125.79 109.836 125.79 119.081C125.79 128.325 133.284 135.819 142.528 135.819Z" stroke="#135677" stroke-width="3.00907" stroke-miterlimit="10" stroke-linecap="round" stroke-linejoin="round"/>
<path d="M142.528 128.145C147.535 128.145 151.593 124.087 151.593 119.08C151.593 114.074 147.535 110.016 142.528 110.016C137.522 110.016 133.463 114.074 133.463 119.08C133.463 124.087 137.522 128.145 142.528 128.145Z" fill="white"/>
<path d="M142.528 128.145C147.535 128.145 151.593 124.087 151.593 119.08C151.593 114.074 147.535 110.016 142.528 110.016C137.522 110.016 133.463 114.074 133.463 119.08C133.463 124.087 137.522 128.145 142.528 128.145Z" stroke="#135677" stroke-width="3.00907" stroke-miterlimit="10" stroke-linecap="round" stroke-linejoin="round"/>
<path d="M142.528 121.864C144.066 121.864 145.312 120.618 145.312 119.08C145.312 117.543 144.066 116.297 142.528 116.297C140.991 116.297 139.745 117.543 139.745 119.08C139.745 120.618 140.991 121.864 142.528 121.864Z" stroke="#135677" stroke-width="3.00907" stroke-miterlimit="10" stroke-linecap="round" stroke-linejoin="round"/>
<path d="M45.5228 135.819C54.767 135.819 62.2607 128.325 62.2607 119.081C62.2607 109.836 54.767 102.343 45.5228 102.343C36.2785 102.343 28.7848 109.836 28.7848 119.081C28.7848 128.325 36.2785 135.819 45.5228 135.819Z" fill="#82818C"/>
<path d="M45.5228 135.819C54.767 135.819 62.2607 128.325 62.2607 119.081C62.2607 109.836 54.767 102.343 45.5228 102.343C36.2785 102.343 28.7848 109.836 28.7848 119.081C28.7848 128.325 36.2785 135.819 45.5228 135.819Z" stroke="#135677" stroke-width="3.00907" stroke-miterlimit="10" stroke-linecap="round" stroke-linejoin="round"/>
<path d="M45.5228 128.145C50.5292 128.145 54.5877 124.087 54.5877 119.08C54.5877 114.074 50.5292 110.016 45.5228 110.016C40.5165 110.016 36.458 114.074 36.458 119.08C36.458 124.087 40.5165 128.145 45.5228 128.145Z" fill="white"/>
<path d="M45.5228 128.145C50.5292 128.145 54.5877 124.087 54.5877 119.08C54.5877 114.074 50.5292 110.016 45.5228 110.016C40.5165 110.016 36.458 114.074 36.458 119.08C36.458 124.087 40.5165 128.145 45.5228 128.145Z" stroke="#135677" stroke-width="3.00907" stroke-miterlimit="10" stroke-linecap="round" stroke-linejoin="round"/>
<path d="M45.523 121.864C47.0603 121.864 48.3064 120.618 48.3064 119.08C48.3064 117.543 47.0603 116.297 45.523 116.297C43.9858 116.297 42.7396 117.543 42.7396 119.08C42.7396 120.618 43.9858 121.864 45.523 121.864Z" stroke="#135677" stroke-width="3.00907" stroke-miterlimit="10" stroke-linecap="round" stroke-linejoin="round"/>
<path d="M50.9383 62.2842C40.9707 63.3374 35.8553 64.6538 34.3507 65.5565C28.4454 69.1674 26.64 75.2608 25.0602 80.6395C24.8721 81.2414 24.7217 81.8055 24.5336 82.3697C24.496 82.5202 24.4584 82.6707 24.3832 82.8211H49.5466L50.9383 62.2842Z" fill="#FFC88D"/>
<path opacity="0.2" d="M30.8163 82.5954C32.396 77.2167 34.1639 71.1233 40.1068 67.5124C41.2728 66.7978 44.658 65.8574 50.789 64.9923L50.9771 62.2842C41.0095 63.3374 35.8941 64.6538 34.3896 65.5565C28.4842 69.1674 26.6788 75.2608 25.099 80.6395C24.911 81.2414 24.7605 81.8055 24.5725 82.3697C24.5348 82.5202 24.4972 82.6707 24.422 82.8211H30.7034C30.7787 82.7459 30.7787 82.6706 30.8163 82.5954Z" fill="#FFBF73"/>
<path d="M50.9383 62.2842C40.9707 63.3374 35.8553 64.6538 34.3507 65.5565C28.4454 69.1674 26.64 75.2608 25.0602 80.6395C24.8721 81.2414 24.7217 81.8055 24.5336 82.3697C24.496 82.5202 24.4584 82.6707 24.3832 82.8211H49.5466L50.9383 62.2842Z" stroke="#135677" stroke-width="3.00907" stroke-miterlimit="10" stroke-linecap="round" stroke-linejoin="round"/>
<path d="M178.939 97.5285C179.352 100.086 176.983 102.193 173.221 102.531C169.648 102.87 165.548 101.29 164.871 98.7322C164.457 96.1744 168.745 93.88 172.356 93.5415C175.93 93.203 178.45 94.9708 178.939 97.5285Z" fill="white"/>
<path d="M178.939 97.5285C179.352 100.086 176.983 102.193 173.221 102.531C169.648 102.87 165.548 101.29 164.871 98.7322C164.457 96.1744 168.745 93.88 172.356 93.5415C175.93 93.203 178.45 94.9708 178.939 97.5285Z" stroke="#135677" stroke-width="3.00907" stroke-miterlimit="10" stroke-linecap="round" stroke-linejoin="round"/>
<path d="M113.828 89.5918H106.682" stroke="#135677" stroke-width="3.00907" stroke-miterlimit="10" stroke-linecap="round" stroke-linejoin="round"/>
<path d="M62.2983 89.5918H54.7756" stroke="#135677" stroke-width="3.00907" stroke-miterlimit="10" stroke-linecap="round" stroke-linejoin="round"/>
</svg>
