<svg  viewBox="0 0 253 203" fill="none" xmlns="http://www.w3.org/2000/svg">
<g clip-path="url(#clip0_1067_2586)">
<path d="M116.098 168.321C119.179 168.31 120.719 168.31 123.777 168.345C128.561 153.771 133.345 139.209 138.14 124.635C171.581 125.251 201.547 131.956 223.37 159.291C224.493 155.851 225.628 152.423 226.752 148.983C202.983 119.219 169.809 114.291 133.843 114.303C127.924 132.305 122.017 150.319 116.098 168.321Z" fill="white"/>
<path d="M17.7456 79.8672C16.622 83.3073 15.4869 86.7357 14.3633 90.1758C36.1976 117.522 66.2096 124.216 99.6735 124.832C94.8896 139.406 90.1058 153.969 85.3103 168.542C88.3451 168.577 89.8625 168.577 92.9205 168.566C98.8395 150.563 104.747 132.549 110.666 114.547C74.7001 114.559 41.5027 109.608 17.7572 79.8672H17.7456Z" fill="white"/>
<path d="M152.678 80.3781C157.705 65.072 162.732 49.7659 167.759 34.4599C164.69 34.425 163.161 34.425 160.079 34.4366C154.16 52.439 148.253 70.453 142.334 88.4553C178.3 88.4437 211.486 93.3714 235.243 123.135C236.308 119.893 236.841 118.266 237.907 115.023C216.084 87.6883 186.118 80.9824 152.678 80.3665V80.3781Z" fill="white"/>
<path d="M136.891 34.6814C133.844 34.6931 132.315 34.6931 129.292 34.6582C124.265 49.9643 119.238 65.2703 114.211 80.5648C80.7468 79.9488 50.7348 73.2546 28.9005 45.9082C27.8348 49.1507 27.302 50.7778 26.2363 54.0203C49.9934 83.7724 83.1793 88.7117 119.145 88.7001C125.064 70.6978 130.972 52.6838 136.891 34.6814Z" fill="white"/>
<path d="M160.08 34.4375C152.354 34.4956 144.617 34.6235 136.891 34.6816C130.972 52.6839 125.064 70.6979 119.145 88.7002C83.1795 88.7119 49.9821 83.7609 26.2366 54.0204C23.4103 62.6323 20.5724 71.2441 17.7461 79.8676C41.5032 109.62 74.689 114.559 110.655 114.547C104.736 132.55 98.8284 150.564 92.9094 168.566C100.635 168.508 108.373 168.38 116.099 168.322C122.018 150.32 127.925 132.306 133.844 114.303C169.81 114.292 202.996 119.219 226.753 148.983C229.579 140.371 232.417 131.759 235.244 123.136C211.475 93.3722 178.289 88.4445 142.335 88.4562C148.254 70.4538 154.161 52.4398 160.08 34.4375Z" fill="#D21D10"/>
<path d="M114.21 80.5747C114.859 78.5874 115.195 77.5879 115.844 75.6006C93.8124 59.7715 75.7079 41.5484 62.1671 17.828C55.1824 12.6098 49.4024 6.83369 43.9815 0C43.7498 0.697315 43.634 1.04597 43.4023 1.75491C54.4411 32.5762 71.0398 58.7023 96.1522 79.7612C102.175 80.2145 108.176 80.4585 114.21 80.5747Z" fill="white"/>
<path d="M43.402 1.75586C42.3942 4.83567 41.3749 7.91547 40.3672 10.9953C49.3094 36.0289 61.8424 58.5173 80.4682 77.5772C85.6459 78.6 90.8931 79.3321 96.1518 79.7622C71.0395 58.6916 54.4408 32.5772 43.402 1.75586Z" fill="#D21D10"/>
<path d="M28.9004 45.9064C40.2287 60.1083 53.6073 69.557 70.8547 75.1703C56.2135 57.8188 46.0667 38.1894 38.4449 16.8516C35.2596 26.5326 32.0858 36.2253 28.9004 45.9064Z" fill="#002068"/>
<path d="M129.291 34.6567C105.441 34.215 82.4598 31.3328 62.166 17.8281C75.7068 41.5485 93.8113 59.7716 115.843 75.6007C120.325 61.9565 124.808 48.3124 129.291 34.6567Z" fill="#002068"/>
<path d="M38.4453 16.8516C46.0671 38.201 56.2139 57.8188 70.8551 75.1704C73.9941 76.135 77.249 76.9369 80.4691 77.5645C61.8434 58.5162 49.3103 36.0278 40.3681 10.9941C39.6036 13.3418 39.2098 14.5156 38.4453 16.8516Z" fill="white"/>
<path d="M167.759 34.459C163.172 48.4053 158.597 62.3632 154.01 76.3095C179.342 64.2924 206.076 52.0197 234.559 51.1132C214.335 37.7712 191.481 34.9006 167.759 34.459Z" fill="#002068"/>
<path d="M253 69.1157C249.455 64.618 245.737 60.3993 241.475 56.5757C210.907 54.0421 181.369 67.6978 154.357 80.4006C159.79 80.4936 165.234 80.7028 170.655 81.1793C196.289 70.4755 225.27 60.0855 252.826 69.6387C252.896 69.4295 252.93 69.3249 253 69.1157Z" fill="#D21D10"/>
<path d="M252.825 69.6383C225.269 60.0851 196.288 70.4751 170.654 81.1789C179.492 82.0621 187.971 83.5033 196.531 85.9322C213.697 81.5392 230.563 79.6448 247.613 85.5255C249.35 80.2259 251.088 74.9379 252.825 69.6383Z" fill="white"/>
<path d="M247.601 85.5248C230.551 79.6441 213.686 81.5385 196.52 85.9316C213.512 91.5799 226.717 100.982 237.918 115.021C241.15 105.189 244.381 95.357 247.613 85.5132L247.601 85.5248Z" fill="#002068"/>
<path d="M234.559 51.1133C206.088 52.0198 179.354 64.2925 154.01 76.3096C153.477 77.9367 153.211 78.7502 152.678 80.3773C153.35 80.3773 153.674 80.3889 154.346 80.4005C181.358 67.6978 210.895 54.042 241.463 56.5756C238.764 54.1931 237.386 53.1006 234.559 51.1133Z" fill="white"/>
<path d="M14.3634 90.1738C11.2012 99.82 8.02744 109.455 4.86523 119.101C21.9041 125.307 38.8271 123.645 56.1556 119.391C38.9777 113.766 25.6571 104.329 14.375 90.1738H14.3634Z" fill="#002068"/>
<path d="M56.1437 119.392C38.8269 123.646 21.8922 125.308 4.85336 119.102C3.23171 124.029 1.61006 128.957 0 133.896C0.150581 134.094 0.231664 134.198 0.382245 134.396C27.4985 144.019 55.9931 134.315 81.453 124.018C72.8119 123.158 64.5184 121.751 56.1437 119.392Z" fill="white"/>
<path d="M81.4535 124.006C55.9937 134.303 27.4991 144.007 0.382812 134.384C4.22843 139.184 8.27096 143.496 12.8579 147.587C42.6962 149.853 71.492 136.976 97.9943 124.808C92.4692 124.726 86.944 124.471 81.442 124.006H81.4535Z" fill="#D21D10"/>
<path d="M98.0056 124.809C71.4917 136.977 42.6959 149.854 12.8691 147.588C15.3827 149.749 18.1279 151.783 20.9195 153.561C48.1631 152.143 73.6925 140.835 98.133 129.527C98.7469 127.656 99.0597 126.715 99.6736 124.832C99.0017 124.832 98.6774 124.82 98.0056 124.809Z" fill="white"/>
<path d="M85.3107 168.54C89.5849 155.535 93.8591 142.53 98.1217 129.525C73.6812 140.834 48.1519 152.13 20.9082 153.56C40.6923 165.542 62.5961 168.133 85.3107 168.552V168.54Z" fill="#002068"/>
<path d="M213.929 188.031C206.423 167.007 196.473 147.215 181.925 130.177C178.786 129.201 175.542 128.376 172.322 127.736C190.913 146.297 203.215 169.308 212.006 193.9C212.771 191.552 213.165 190.378 213.929 188.042V188.031Z" fill="white"/>
<path d="M172.335 127.736C167.296 126.678 162.176 126.004 157.057 125.527C181.798 146.493 198.131 172.422 209.054 202.918C210.038 199.908 211.023 196.909 212.019 193.899C203.239 169.307 190.926 146.307 172.335 127.736Z" fill="#D21D10"/>
<path d="M138.141 124.633C137.608 126.26 137.341 127.073 136.809 128.689C158.006 143.925 175.624 161.346 189.026 183.939C196.821 189.134 203.215 195.677 209.007 202.999C209.018 202.964 209.03 202.941 209.041 202.906C198.13 172.422 181.786 146.482 157.044 125.516C150.743 125.005 144.453 124.737 138.141 124.621V124.633Z" fill="white"/>
<path d="M123.789 168.343C146.863 168.773 169.079 171.47 189.037 183.94C175.624 161.347 158.006 143.926 136.82 128.689C132.476 141.904 128.133 155.129 123.801 168.343H123.789Z" fill="#002068"/>
<path d="M223.37 159.291C212.169 145.228 198.941 135.826 181.926 130.178C196.474 147.215 206.436 167.008 213.93 188.032C217.081 178.455 220.22 168.867 223.37 159.291Z" fill="#002068"/>
<g style="mix-blend-mode:multiply">
<path d="M24.1278 153.224C20.7223 148.761 18.8343 143.38 18.8922 137.755C18.9385 133.501 19.8652 129.189 20.7223 125.029C21.6721 120.345 22.8536 115.708 24.1625 111.117C26.8151 101.808 29.8151 92.5455 33.0353 83.4107C36.3017 74.1713 40.2168 65.2108 43.8424 56.1224C46.576 49.2771 48.2903 41.9088 52.2865 35.6214C54.024 32.8786 56.2711 30.3566 59.2248 28.9388C61.9353 27.6255 64.9933 27.2187 67.9702 27.2071C71.2945 27.1955 74.5957 27.672 77.8738 28.2414C81.2329 28.8225 84.5804 29.4385 87.9396 29.9731C89.2137 30.1707 90.4879 30.3683 91.7736 30.5542C81.453 28.0439 71.5146 24.0692 62.1554 17.8515C55.1707 12.6332 49.3907 6.85712 43.9698 0.0234375C43.7381 0.720752 43.6223 1.06941 43.3906 1.77835L40.3558 11.0178C39.5913 13.3654 39.1975 14.5392 38.433 16.8752L28.8885 45.93C27.8228 49.1725 27.29 50.7996 26.2243 54.0421L14.3516 90.1979L4.85336 119.125C3.23171 124.053 1.61006 128.98 0 133.92C0.150581 134.117 0.231664 134.222 0.382245 134.419C4.22786 139.219 8.2704 143.531 12.8573 147.622C15.3709 149.783 18.1161 151.817 20.9077 153.595C23.2359 155.002 25.5873 156.28 27.9618 157.431C26.5718 156.152 25.2745 154.758 24.1278 153.258V153.224Z" fill="#BABCBE"/>
</g>
<g style="mix-blend-mode:multiply">
<path d="M196.613 187.823C191.875 181.593 186.246 176.108 182.018 169.472C180.06 166.404 178.219 163.045 177.477 159.454C176.759 155.967 177.072 152.376 177.709 148.889C178.508 144.566 179.771 140.301 180.998 136.082C182.319 131.584 183.744 127.11 185.203 122.647C188.076 113.861 190.856 105.051 193.914 96.335C195.443 91.9884 197.145 87.7115 198.79 83.3998C200.203 79.704 201.281 75.892 202.543 72.1614C204.79 65.5253 207.675 58.2732 213.547 54.0312C217.74 50.9979 222.883 50.347 227.876 51.2768C232.81 52.1949 237.455 54.3798 241.787 56.8902C241.671 56.7856 241.567 56.681 241.451 56.5764C238.752 54.1939 237.374 53.1014 234.548 51.1141C214.323 37.7721 191.47 34.9015 167.747 34.4599C164.678 34.425 163.149 34.425 160.068 34.4366C152.342 34.4947 144.604 34.6226 136.878 34.6807C135.963 34.6807 135.048 34.6807 134.133 34.6807C134.168 34.6807 134.214 34.6807 134.249 34.6923C139.89 35.3896 147.604 36.8075 150.118 42.7231C152.249 47.7205 150.176 53.6477 148.45 58.4359C145.901 65.5136 143.515 72.6379 141.141 79.7737C138.326 88.2345 135.419 96.6604 132.419 105.063C126.523 121.589 122.225 138.72 114.94 154.723C113.584 157.687 111.87 160.29 109.484 162.533C107.132 164.753 104.376 166.543 101.434 167.868C100.935 168.089 100.437 168.298 99.9277 168.495C105.314 168.437 110.7 168.356 116.086 168.321C119.167 168.309 120.708 168.31 123.766 168.344C146.84 168.774 169.056 171.471 189.014 183.941C193.3 186.8 197.169 190.066 200.748 193.657C199.427 191.67 198.037 189.729 196.589 187.823H196.613Z" fill="#BABCBE"/>
</g>
<g style="mix-blend-mode:multiply">
<path d="M155.633 171.249C153.733 169.738 152.389 167.762 151.787 165.38C151.15 162.823 151.231 160.127 151.521 157.535C151.845 154.606 152.378 151.701 153.003 148.83C155.876 135.523 161.111 122.913 165.363 110.025C169.857 96.3805 174.513 82.7944 179.228 69.22C180.421 65.7916 181.614 62.3631 182.807 58.9346C183.641 56.5289 184.51 54.1232 185.587 51.8104C187.081 48.6028 188.969 45.4881 191.691 43.1869C195.282 40.1536 199.869 38.9449 204.548 38.4336C192.699 35.6211 180.351 34.7029 167.749 34.4705C166.996 34.4705 166.336 34.4589 165.722 34.4473C167.529 35.0981 169.254 35.9581 170.76 37.1552C174.05 39.7469 175.44 43.6286 175.521 47.7311C175.648 54.344 173.494 60.7477 171.455 66.9538C169.231 73.7293 167.274 80.5863 165.119 87.3851C162.965 94.1374 160.602 100.832 158.621 107.63C154.996 120.043 151.891 132.606 147.86 144.902C145.161 153.119 142.069 161.3 138.096 168.994C144.026 169.436 149.876 170.156 155.633 171.26V171.249Z" fill="#BABCBE"/>
</g>
</g>
<defs>
<clipPath id="clip0_1067_2586">
<rect width="253" height="203" fill="white"/>
</clipPath>
</defs>
</svg>
