<svg  viewBox="0 0 512 512" style="color:currentColor" xmlns="http://www.w3.org/2000/svg" class="h-full w-full"><rect width="512" height="512" x="0" y="0" rx="0" fill="transparent" stroke="transparent" stroke-width="0" stroke-opacity="100%" paint-order="stroke"></rect><svg width="512px" height="512px" viewBox="0 0 24 24" fill="currentColor" x="0" y="0" role="img" style="display:inline-block;vertical-align:middle" xmlns="http://www.w3.org/2000/svg"><g fill="currentColor"><path fill="currentColor" d="M8.79 9.24V5.5a2.5 2.5 0 0 1 5 0v3.74c1.21-.81 2-2.18 2-3.74c0-2.49-2.01-4.5-4.5-4.5s-4.5 2.01-4.5 4.5c0 1.56.79 2.93 2 3.74zm5.5 2.47c-.28-.14-.58-.21-.89-.21h-.61v-6c0-.83-.67-1.5-1.5-1.5s-1.5.67-1.5 1.5v10.74l-3.44-.72c-.37-.08-.76.04-1.03.31c-.43.44-.43 1.14 0 1.58l4.01 4.01c.38.37.89.58 1.42.58h6.1c1 0 1.84-.73 1.98-1.72l.63-4.47c.12-.85-.32-1.69-1.09-2.07l-4.08-2.03z"/></g></svg></svg>