<svg  viewBox="0 0 64 65" fill="none" xmlns="http://www.w3.org/2000/svg">
<path d="M36 8.5C45.94 8.5 54 16.56 54 26.5C54 36.44 45.94 44.5 36 44.5C26.04 44.5 18 36.44 18 26.5C18 16.56 26.04 8.5 36 8.5Z" fill="#FFF296"/>
<path d="M23.9512 62.4668H47.9512M35.9512 52.4668V62.4668M25.7422 2.5C12.8562 7.97 6.49823 23.706 11.9682 36.592C17.4382 49.478 33.1722 55.836 46.0602 50.368M53.9024 26.4336C53.9024 16.4916 45.8444 8.4336 35.9024 8.4336C25.9604 8.4336 17.9024 16.4916 17.9024 26.4336C17.9024 36.3756 25.9604 44.4336 35.9024 44.4336C45.8444 44.4336 53.9024 36.3756 53.9024 26.4336Z" stroke="#181818" stroke-width="2" stroke-linecap="round" stroke-linejoin="round"/>
</svg>
