<svg  viewBox="0 0 25 24" fill="none" xmlns="http://www.w3.org/2000/svg">
<path d="M12.3779 7.37695C9.82388 7.37695 7.75488 9.44695 7.75488 12C7.75488 14.554 9.82388 16.624 12.3779 16.624C14.9299 16.624 17.0009 14.554 17.0009 12C17.0009 9.44695 14.9299 7.37695 12.3779 7.37695ZM12.3779 15.004C10.7189 15.004 9.37388 13.659 9.37388 12.001C9.37388 10.342 10.7189 8.99795 12.3779 8.99795C14.0369 8.99795 15.3799 10.342 15.3799 12.001C15.3799 13.659 14.0369 15.004 12.3779 15.004Z" fill="#181818"/>
<path d="M17.1854 8.28491C17.7808 8.28491 18.2634 7.80227 18.2634 7.20691C18.2634 6.61154 17.7808 6.12891 17.1854 6.12891C16.5901 6.12891 16.1074 6.61154 16.1074 7.20691C16.1074 7.80227 16.5901 8.28491 17.1854 8.28491Z" fill="#181818"/>
<path d="M20.9119 6.11088C20.4429 4.90188 19.4879 3.94588 18.2789 3.47888C17.5799 3.21588 16.8409 3.07488 16.0929 3.05888C15.1299 3.01688 14.8249 3.00488 12.3829 3.00488C9.94086 3.00488 9.62786 3.00488 8.67286 3.05888C7.92686 3.07388 7.18786 3.21488 6.48886 3.47888C5.27886 3.94588 4.32386 4.90188 3.85586 6.11088C3.59286 6.81088 3.45186 7.54888 3.43686 8.29688C3.39386 9.25888 3.38086 9.56388 3.38086 12.0069C3.38086 14.4489 3.38086 14.7599 3.43686 15.7169C3.45186 16.4649 3.59286 17.2029 3.85586 17.9039C4.32486 19.1119 5.27986 20.0679 6.48986 20.5359C7.18586 20.8079 7.92486 20.9619 8.67486 20.9859C9.63786 21.0279 9.94286 21.0409 12.3849 21.0409C14.8269 21.0409 15.1399 21.0409 16.0949 20.9859C16.8419 20.9709 17.5809 20.8289 18.2809 20.5669C19.4899 20.0979 20.4449 19.1429 20.9139 17.9339C21.1769 17.2339 21.3179 16.4959 21.3329 15.7479C21.3759 14.7859 21.3889 14.4809 21.3889 12.0379C21.3889 9.59488 21.3889 9.28488 21.3329 8.32788C21.3199 7.56988 21.1799 6.81888 20.9119 6.11088ZM19.6939 15.6429C19.6869 16.2189 19.5829 16.7899 19.3829 17.3309C19.0779 18.1179 18.4569 18.7399 17.6709 19.0419C17.1359 19.2409 16.5719 19.3449 16.0009 19.3529C15.0509 19.3969 14.7829 19.4079 12.3469 19.4079C9.90886 19.4079 9.65986 19.4079 8.69186 19.3529C8.12286 19.3459 7.55686 19.2409 7.02286 19.0419C6.23386 18.7409 5.60886 18.1189 5.30386 17.3309C5.10786 16.7969 5.00186 16.2319 4.99286 15.6619C4.94986 14.7119 4.93986 14.4439 4.93986 12.0079C4.93986 9.57088 4.93986 9.32188 4.99286 8.35288C4.99986 7.77688 5.10386 7.20688 5.30386 6.66588C5.60886 5.87688 6.23386 5.25588 7.02286 4.95388C7.55686 4.75588 8.12286 4.65088 8.69186 4.64288C9.64286 4.59988 9.90986 4.58788 12.3469 4.58788C14.7839 4.58788 15.0339 4.58788 16.0009 4.64288C16.5719 4.64988 17.1359 4.75488 17.6709 4.95388C18.4569 5.25688 19.0779 5.87888 19.3829 6.66588C19.5789 7.19988 19.6849 7.76488 19.6939 8.33488C19.7369 9.28588 19.7479 9.55288 19.7479 11.9899C19.7479 14.4259 19.7479 14.6879 19.7049 15.6439H19.6939V15.6429Z" fill="#181818"/>
</svg>
