<svg  viewBox="0 0 391 97" fill="none" xmlns="http://www.w3.org/2000/svg">
<path d="M0.0116002 40.5976C0.0286475 43.0622 0.8938 46.3089 2.76901 49.2174C7.10755 55.9434 13.2787 59.2577 21.3975 58.7885C21.9515 58.7547 22.6078 58.8265 22.8763 58.1882C23.132 57.5794 22.7101 57.1144 22.3564 56.6747C22.1348 56.3999 21.8577 56.1759 21.6148 55.918C19.2538 53.3984 19.1217 49.9234 21.3421 47.3024C22.1646 46.3343 23.0894 45.4549 23.9929 44.5587C24.7955 43.7622 25.598 42.9656 26.4006 42.1689C32.8263 35.7908 39.2535 29.4112 45.6942 23.045C49.4403 19.3417 50.7828 14.8479 49.419 9.889C46.6233 -0.273904 34.3705 -3.32616 26.7248 4.14806C19.697 11.0177 12.7332 17.9551 5.79064 24.9093C1.74617 28.9635 -0.133303 33.9139 0.00733746 40.6018L0.0116002 40.5976Z" fill="black"/>
<path d="M46.3761 30.8024C45.7368 30.8024 45.089 30.7306 44.4625 30.8151C42.7791 31.0476 42.5447 31.6775 43.5973 33.0176C47.2071 37.6129 47.0366 39.9972 42.8899 44.1064C34.4983 52.4134 26.1111 60.7204 17.7536 69.0613C13.8626 72.9506 12.665 77.6093 14.3612 82.826C17.4468 92.3168 29.3543 95.1111 36.5952 88.0343C44.3304 80.4713 51.942 72.7815 59.6645 65.2058C63.1208 61.8154 65.175 57.8627 65.8271 53.0433C67.3954 41.4896 58.0876 30.7306 46.3761 30.8024Z" fill="black"/>
<path d="M102.775 10.1666H109.202V39.0579H102.775V24.6412C102.775 19.3146 97.9699 14.9722 91.9485 14.9722C85.985 14.9722 81.1215 19.3146 81.1215 24.6412C81.1215 29.91 84.3638 34.2523 88.3588 34.2523C92.3538 34.2523 95.5961 30.6626 95.5961 26.2045H101.965C101.965 33.7313 95.8856 39.8685 88.3588 39.8685C80.832 39.8685 74.7527 33.0365 74.7527 24.6412C74.7527 16.1881 82.4532 9.35606 91.9485 9.35606C94.6697 9.35606 97.2751 9.93505 99.5332 10.9193C101.039 11.5562 102.196 12.7721 102.891 14.2195L103.991 16.767L104.802 16.4197L103.354 13.1774C103.007 12.3668 102.775 11.4983 102.775 10.5719V10.1666ZM142.875 0.555522H149.301V39.0579H142.875V24.6412C142.875 19.3146 138.069 14.9722 132.048 14.9722C126.084 14.9722 121.221 19.3146 121.221 24.6412C121.221 29.91 124.463 34.2523 128.458 34.2523C132.453 34.2523 135.695 30.6626 135.695 26.2045H142.064C142.064 33.7313 135.985 39.8685 128.458 39.8685C120.931 39.8685 114.852 33.0365 114.852 24.6412C114.852 16.1881 122.552 9.35606 132.048 9.35606C134.769 9.35606 137.374 9.93505 139.632 10.9193C141.138 11.5562 142.296 12.7721 142.99 14.2195L144.09 16.767L144.901 16.4197L143.454 13.1774C143.106 12.3668 142.875 11.4983 142.875 10.5719V0.555522ZM183.147 10.1666H189.4L175.042 39.0579H168.21L153.851 10.1666H160.104L170.526 31.1258C170.931 31.9943 171.162 32.9786 171.162 33.9628V35.0629H172.031V33.9628C172.031 32.9786 172.262 31.9943 172.726 31.1258L183.147 10.1666ZM218.493 10.1666H224.92V39.0579H218.493V24.6412C218.493 19.3146 213.687 14.9722 207.666 14.9722C201.702 14.9722 196.839 19.3146 196.839 24.6412C196.839 29.91 200.081 34.2523 204.076 34.2523C208.071 34.2523 211.314 30.6626 211.314 26.2045H217.682C217.682 33.7313 211.603 39.8685 204.076 39.8685C196.549 39.8685 190.47 33.0365 190.47 24.6412C190.47 16.1881 198.171 9.35606 207.666 9.35606C210.387 9.35606 212.993 9.93505 215.251 10.9193C216.756 11.5562 217.914 12.7721 218.609 14.2195L219.709 16.767L220.519 16.4197L219.072 13.1774C218.725 12.3668 218.493 11.4983 218.493 10.5719V10.1666ZM249.039 9.35606C256.566 9.41396 262.645 15.5512 262.645 23.078V39.0579H256.218V23.0201C256.218 18.5619 252.976 14.9722 248.981 14.9722C243.017 14.9722 238.154 19.3146 238.154 24.6412V39.0579H231.785V10.1666H238.154V10.5719C238.154 11.4983 237.98 12.3668 237.633 13.1774L236.185 16.4197L236.938 16.767L238.096 14.2195C238.733 12.7721 239.891 11.6141 241.338 10.9772C243.654 9.93505 246.26 9.35606 249.039 9.35606ZM284.979 34.2523C288.221 34.2523 291.058 32.9786 293.085 31.01H300.612C297.89 36.2209 291.927 39.8685 284.979 39.8685C275.484 39.8685 267.783 33.0365 267.783 24.6412C267.783 16.1881 275.484 9.35606 284.979 9.35606C291.927 9.35606 297.89 13.0037 300.612 18.2145H293.085C291.058 16.246 288.221 14.9722 284.979 14.9722C279.016 14.9722 274.152 19.3146 274.152 24.6412C274.152 29.91 279.016 34.2523 284.979 34.2523ZM339.109 24.6412C339.109 25.4518 339.051 26.2624 338.878 27.015H311.376C312.592 31.1837 316.818 34.2523 321.855 34.2523C325.098 34.2523 327.935 32.9786 329.961 31.01H337.488C334.767 36.2209 328.803 39.8685 321.855 39.8685C312.36 39.8685 304.66 33.0365 304.66 24.6412C304.66 16.1881 312.36 9.35606 321.855 9.35606C330.482 9.35606 337.604 14.9143 338.878 22.2095C339.051 23.0201 339.109 23.7727 339.109 24.6412ZM313.518 22.2095H332.335C331.177 18.0408 326.893 14.9722 321.855 14.9722C317.108 14.9722 313.113 17.6934 311.607 21.4568C311.492 21.92 311.26 22.3253 311.028 22.6727L309.87 24.3517L310.623 24.8728L311.723 23.1359C312.129 22.5569 312.765 22.2095 313.518 22.2095ZM371.482 0.555522H377.909V39.0579H371.482V24.6412C371.482 19.3146 366.677 14.9722 360.655 14.9722C354.692 14.9722 349.828 19.3146 349.828 24.6412C349.828 29.91 353.071 34.2523 357.066 34.2523C361.061 34.2523 364.303 30.6626 364.303 26.2045H370.672C370.672 33.7313 364.593 39.8685 357.066 39.8685C349.539 39.8685 343.46 33.0365 343.46 24.6412C343.46 16.1881 351.16 9.35606 360.655 9.35606C363.377 9.35606 365.982 9.93505 368.24 10.9193C369.745 11.5562 370.903 12.7721 371.598 14.2195L372.698 16.767L373.509 16.4197L372.061 13.1774C371.714 12.3668 371.482 11.4983 371.482 10.5719V0.555522ZM109.144 71.6412C109.144 72.4518 109.086 73.2624 108.913 74.015H81.411C82.6268 78.1837 86.8534 81.2523 91.8906 81.2523C95.1329 81.2523 97.9699 79.9786 99.9963 78.01H107.523C104.802 83.2209 98.8384 86.8685 91.8906 86.8685C82.3953 86.8685 74.6948 80.0365 74.6948 71.6412C74.6948 63.1881 82.3953 56.3561 91.8906 56.3561C100.517 56.3561 107.639 61.9143 108.913 69.2095C109.086 70.0201 109.144 70.7727 109.144 71.6412ZM83.5532 69.2095H102.37C101.212 65.0408 96.9277 61.9722 91.8906 61.9722C87.1429 61.9722 83.1479 64.6934 81.6426 68.4568C81.5268 68.92 81.2952 69.3253 81.0636 69.6727L79.9056 71.3517L80.6583 71.8728L81.7584 70.1359C82.1637 69.5569 82.8005 69.2095 83.5532 69.2095ZM131.964 56.3561C139.491 56.414 145.57 62.5512 145.57 70.078V86.0579H139.144V70.0201C139.144 65.5619 135.901 61.9722 131.906 61.9722C125.943 61.9722 121.079 66.3146 121.079 71.6412V86.0579H114.711V57.1666H121.079V57.5719C121.079 58.4983 120.906 59.3668 120.558 60.1774L119.111 63.4197L119.864 63.767L121.022 61.2195C121.658 59.7721 122.816 58.6141 124.264 57.9772C126.58 56.935 129.185 56.3561 131.964 56.3561ZM178.79 57.1666H185.216V81.2523C185.216 89.6476 177.516 96.4796 167.963 96.4796H157.946V90.8635H167.963C173.984 90.8635 178.79 86.579 178.79 81.2523V71.6412C178.79 66.3146 173.984 61.9722 167.963 61.9722C161.999 61.9722 157.136 66.3146 157.136 71.6412C157.136 76.91 160.378 81.2523 164.373 81.2523C168.368 81.2523 171.61 77.6626 171.61 73.2045H177.979C177.979 80.7313 171.9 86.8685 164.373 86.8685C156.846 86.8685 150.767 80.0365 150.767 71.6412C150.767 63.1881 158.467 56.3561 167.963 56.3561C170.684 56.3561 173.289 56.935 175.547 57.9193C177.053 58.5562 178.211 59.7721 178.905 61.2195L180.005 63.767L180.816 63.4197L179.369 60.1774C179.021 59.3668 178.79 58.4983 178.79 57.5719V57.1666ZM201.463 81.2523H205.458V86.8685H201.463C196.136 86.8685 191.852 83.2788 191.852 78.8206V47.5555H198.22V78.8206C198.22 80.1523 199.668 81.2523 201.463 81.2523ZM216.668 86.0579H210.299V57.1666H216.668V86.0579ZM216.668 55.5455H210.299V49.1767H216.668V55.5455ZM246.874 71.0622C249.538 72.7413 251.159 75.0572 251.159 77.6047C251.159 82.6998 244.732 86.8685 236.742 86.8685C228.752 86.8685 222.326 82.6998 222.326 77.6047C222.326 77.4889 222.326 77.3732 222.326 77.2574H228.752C228.752 77.3732 228.694 77.4889 228.694 77.6047C228.694 79.6312 232.284 81.2523 236.742 81.2523C241.142 81.2523 244.732 79.6312 244.732 77.6047C244.732 75.6362 240.737 74.8256 236.742 74.015C232.747 73.2045 229.042 72.915 226.552 71.0622C224.41 69.499 223.078 67.4725 223.078 65.2145C223.078 60.351 229.215 56.3561 236.742 56.3561C244.269 56.3561 250.348 60.351 250.348 65.2145H243.922C243.922 63.4197 240.737 61.9722 236.742 61.9722C232.747 61.9722 229.505 63.4197 229.505 65.2145C229.505 66.9515 232.805 67.6462 236.742 68.3989C240.737 69.2095 244.269 69.4411 246.874 71.0622ZM274.166 56.3561C281.693 56.414 287.772 62.5512 287.772 70.078V86.0579H281.345V70.0201C281.345 65.5619 278.103 61.9722 274.108 61.9722C268.144 61.9722 263.281 66.3146 263.281 71.6412V86.0579H256.912V47.5555H263.281V57.5719C263.281 58.4983 263.107 59.3668 262.76 60.1774L261.312 63.4197L262.065 63.767L263.223 61.2195C263.86 59.7721 265.018 58.6141 266.465 57.9772C268.781 56.935 271.387 56.3561 274.166 56.3561Z" fill="black"/>
</svg>
