<svg viewBox="0 0 40 40" fill="none" xmlns="http://www.w3.org/2000/svg">

<path d="M10.5746 18.4567C10.5795 19.1609 10.8267 20.0885 11.3624 20.9195C12.602 22.8412 14.3652 23.7882 16.6849 23.6541C16.8431 23.6445 17.0307 23.665 17.1074 23.4826C17.1804 23.3087 17.0599 23.1758 16.9588 23.0502C16.8955 22.9717 16.8164 22.9077 16.747 22.834C16.0724 22.1141 16.0346 21.1213 16.669 20.3724C16.904 20.0958 17.1683 19.8446 17.4264 19.5885C17.6557 19.3609 17.885 19.1333 18.1143 18.9057C19.9502 17.0834 21.7866 15.2606 23.6268 13.4417C24.6971 12.3836 25.0807 11.0997 24.691 9.68285C23.8922 6.77916 20.3914 5.90709 18.2069 8.04258C16.199 10.0053 14.2093 11.9874 12.2258 13.9744C11.0702 15.1327 10.5332 16.5471 10.5734 18.4579L10.5746 18.4567Z" fill="black"/>
<path d="M23.8216 15.6581C23.6389 15.6581 23.4539 15.6376 23.2749 15.6617C22.7939 15.7282 22.7269 15.9081 23.0277 16.291C24.059 17.604 24.0103 18.2852 22.8255 19.4592C20.428 21.8327 18.0316 24.2061 15.6437 26.5892C14.532 27.7005 14.1899 29.0315 14.6745 30.522C15.5561 33.2336 18.9582 34.032 21.027 32.0101C23.2371 29.8492 25.4119 27.6521 27.6183 25.4877C28.6058 24.519 29.1927 23.3896 29.379 22.0127C29.8271 18.7116 27.1677 15.6376 23.8216 15.6581Z" fill="black"/>
</svg>
