<svg  viewBox="0 0 341 140" fill="none" xmlns="http://www.w3.org/2000/svg">
<rect width="341" height="140" fill="white"/>
<path d="M55.9328 50.7835C56.8013 51.9414 57.2645 53.2152 57.2645 54.6047C57.2645 59.6998 50.7799 63.8106 42.8478 63.8106C35.4947 63.8106 29.4154 60.3367 28.5469 55.8206H35.2631C36.3632 57.2102 39.316 58.2523 42.8478 58.2523C47.2481 58.2523 50.8378 56.6312 50.8378 54.6047C50.8378 52.752 47.7113 51.1887 43.6584 51.015H39.6055V45.3989H43.6584C47.2481 45.1673 50.0272 43.8357 50.0272 42.1566C50.0272 40.4197 46.8428 38.9722 42.8478 38.9722C40.1845 38.9722 37.8107 39.6091 36.5948 40.5934H29.4154C30.5734 36.4826 36.1316 33.3561 42.8478 33.3561C50.3746 33.3561 56.4539 37.2931 56.4539 42.1566C56.4539 43.7199 55.8749 45.1094 54.8328 46.3832C54.138 47.2517 53.1537 47.7727 52.0536 47.9464L50.7799 48.178L50.8957 49.0465L51.4168 48.9307C53.1537 48.6412 54.9486 49.336 55.9328 50.7835ZM100.491 63.0579H94.0647V34.1666H100.491V63.0579ZM76.2321 45.5726C83.7588 45.5726 89.0855 49.4518 89.0855 54.3153C89.0855 59.1208 83.7588 63.0579 76.2321 63.0579H62.626V34.1666H68.9948V45.5147H76.2321V45.5726ZM76.2321 57.7313C80.4007 57.7313 82.6588 56.168 82.6588 54.3153C82.6588 52.4046 80.4007 50.8993 76.2321 50.8993V50.8414H68.9948V57.7313H76.2321ZM119.305 45.7463L135.169 63.0579H127.526L115.02 49.3939L113.052 51.015V63.0579H106.683V34.1666H113.052V40.9986C113.052 41.8671 112.878 42.7356 112.531 43.6041L111.083 46.8464L111.836 47.1938L113.052 44.5304C113.399 43.662 114.036 42.8514 114.731 42.2145L124.284 34.1666H133.027L119.305 45.7463ZM152.816 33.3561C162.369 33.3561 170.07 40.1881 170.07 48.5833C170.07 57.0365 162.369 63.8106 152.816 63.8106C143.321 63.8106 135.62 57.0365 135.62 48.5833C135.62 40.1881 143.321 33.3561 152.816 33.3561ZM152.816 58.2523C158.838 58.2523 163.643 53.91 163.643 48.5833C163.643 43.2567 158.838 38.9722 152.816 38.9722C146.853 38.9722 141.989 43.2567 141.989 48.5833C141.989 53.91 146.853 58.2523 152.816 58.2523ZM197.002 48.9886C199.086 48.6412 201.171 49.7413 201.981 51.7098C202.329 52.5204 202.502 53.3889 202.502 54.3153C202.502 59.1208 197.234 63 189.707 63H175.29V34.1666H189.707C196.828 34.1666 201.75 37.8721 201.75 42.504C201.75 43.7778 201.402 44.9357 200.708 45.9779C200.013 47.078 198.855 47.8306 197.581 48.0622L196.828 48.178L197.002 48.9886ZM181.659 39.5512V45.7463H189.707C193.47 45.7463 195.323 44.183 195.323 42.504C195.323 40.8249 193.47 39.5512 189.707 39.5512H181.659ZM189.707 57.9049C193.876 57.9049 196.134 56.168 196.134 54.3153C196.134 52.4046 193.876 50.6677 189.707 50.6677L181.659 50.6098V57.9049H189.707ZM234.908 34.1666H241.335V63.0579H234.908V48.5833C234.908 43.3146 230.102 38.9722 224.081 38.9722C218.117 38.9722 213.254 43.3146 213.254 48.5833C213.254 53.91 216.496 58.2523 220.491 58.2523C224.486 58.2523 227.728 54.6047 227.728 50.2045H234.097C234.097 57.7313 228.018 63.8106 220.491 63.8106C212.964 63.8106 206.885 57.0365 206.885 48.5833C206.885 40.1881 214.585 33.3561 224.081 33.3561C226.802 33.3561 229.407 33.935 231.665 34.9193C233.171 35.5562 234.329 36.7142 235.024 38.2195L236.124 40.767L236.934 40.4197L235.487 37.1774C235.139 36.3668 234.908 35.4404 234.908 34.5719V34.1666ZM42.4136 80.3561C51.9668 80.3561 59.6673 87.1881 59.6673 95.5833C59.6673 104.036 51.9668 110.811 42.4136 110.811C32.9183 110.811 25.2178 104.036 25.2178 95.5833C25.2178 87.1881 32.9183 80.3561 42.4136 80.3561ZM42.4136 105.252C48.435 105.252 53.2406 100.91 53.2406 95.5833C53.2406 90.2567 48.435 85.9722 42.4136 85.9722C36.4501 85.9722 31.5866 90.2567 31.5866 95.5833C31.5866 100.91 36.4501 105.252 42.4136 105.252ZM77.5095 92.7463L93.3736 110.058H85.731L73.225 96.3939L71.2564 98.015V110.058H64.8876V81.1666H71.2564V87.9986C71.2564 88.8671 71.0827 89.7356 70.7354 90.6041L69.2879 93.8464L70.0406 94.1938L71.2564 91.5304C71.6038 90.662 72.2407 89.8514 72.9355 89.2145L82.4887 81.1666H91.2314L77.5095 92.7463ZM111.021 105.252C114.263 105.252 117.1 103.979 119.127 102.01H126.653C123.932 107.221 117.969 110.811 111.021 110.811C101.525 110.811 93.825 104.036 93.825 95.5833C93.825 87.1881 101.525 80.3561 111.021 80.3561C117.969 80.3561 123.932 84.0037 126.653 89.1566H119.127C117.1 87.1881 114.263 85.9722 111.021 85.9722C105.057 85.9722 100.194 90.2567 100.194 95.5833C100.194 100.91 105.057 105.252 111.021 105.252ZM158.611 81.1666H165.038V110.058H158.611V95.5833C158.611 90.3146 153.805 85.9722 147.784 85.9722C141.82 85.9722 136.957 90.3146 136.957 95.5833C136.957 100.91 140.199 105.252 144.194 105.252C148.189 105.252 151.432 101.605 151.432 97.2045H157.8C157.8 104.731 151.721 110.811 144.194 110.811C136.668 110.811 130.588 104.036 130.588 95.5833C130.588 87.1881 138.289 80.3561 147.784 80.3561C150.505 80.3561 153.111 80.935 155.369 81.9193C156.874 82.5562 158.032 83.7142 158.727 85.2195L159.827 87.767L160.637 87.4197L159.19 84.1774C158.843 83.3668 158.611 82.4404 158.611 81.5719V81.1666ZM195.247 81.1666H201.674V110.058H195.247V98.015H177.588V110.058H171.219V81.1666H177.588V93.2095H195.247V81.1666ZM234.908 81.1666H241.335V110.058H234.908V95.5833C234.908 90.3146 230.102 85.9722 224.081 85.9722C218.117 85.9722 213.254 90.3146 213.254 95.5833C213.254 100.91 216.496 105.252 220.491 105.252C224.486 105.252 227.728 101.605 227.728 97.2045H234.097C234.097 104.731 228.018 110.811 220.491 110.811C212.964 110.811 206.885 104.036 206.885 95.5833C206.885 87.1881 214.586 80.3561 224.081 80.3561C226.802 80.3561 229.407 80.935 231.666 81.9193C233.171 82.5562 234.329 83.7142 235.024 85.2195L236.124 87.767L236.934 87.4197L235.487 84.1774C235.139 83.3668 234.908 82.4404 234.908 81.5719V81.1666Z" fill="black"/>
<path d="M251.012 64.5976C251.029 67.0622 251.894 70.3089 253.769 73.2174C258.108 79.9434 264.279 83.2577 272.397 82.7885C272.952 82.7547 273.608 82.8265 273.876 82.1882C274.132 81.5794 273.71 81.1144 273.356 80.6747C273.135 80.3999 272.858 80.1759 272.615 79.918C270.254 77.3984 270.122 73.9234 272.342 71.3024C273.165 70.3343 274.089 69.4549 274.993 68.5587C275.795 67.7622 276.598 66.9656 277.401 66.1689C283.826 59.7908 290.253 53.4112 296.694 47.045C300.44 43.3417 301.783 38.8479 300.419 33.889C297.623 23.7261 285.37 20.6738 277.725 28.1481C270.697 35.0177 263.733 41.9551 256.791 48.9093C252.746 52.9635 250.867 57.9139 251.007 64.6018L251.012 64.5976Z" fill="black"/>
<path d="M297.376 54.8024C296.737 54.8024 296.089 54.7306 295.463 54.8151C293.779 55.0476 293.545 55.6775 294.597 57.0176C298.207 61.6129 298.037 63.9972 293.89 68.1064C285.498 76.4134 277.111 84.7204 268.754 93.0613C264.863 96.9506 263.665 101.609 265.361 106.826C268.447 116.317 280.354 119.111 287.595 112.034C295.33 104.471 302.942 96.7815 310.664 89.2058C314.121 85.8154 316.175 81.8627 316.827 77.0433C318.395 65.4896 309.088 54.7306 297.376 54.8024Z" fill="black"/>
</svg>
