<svg viewBox="0 0 251 40" fill="none" xmlns="http://www.w3.org/2000/svg">
<path d="M12.7343 11.1043C13.0944 11.5844 13.2864 12.1125 13.2864 12.6886C13.2864 14.801 10.5979 16.5053 7.30933 16.5053C4.26077 16.5053 1.74031 15.065 1.38025 13.1927H4.16476C4.62084 13.7688 5.84506 14.2009 7.30933 14.2009C9.13366 14.2009 10.6219 13.5287 10.6219 12.6886C10.6219 11.9204 9.3257 11.2723 7.64539 11.2003H5.96508V8.87189H7.64539C9.13366 8.77587 10.2859 8.22377 10.2859 7.52765C10.2859 6.80752 8.96563 6.20741 7.30933 6.20741C6.20513 6.20741 5.22095 6.47145 4.71686 6.87953H1.74031C2.2204 5.17522 4.52482 3.87898 7.30933 3.87898C10.4299 3.87898 12.9504 5.51128 12.9504 7.52765C12.9504 8.17577 12.7103 8.75187 12.2782 9.27997C11.9902 9.64003 11.5821 9.85607 11.126 9.92808L10.5979 10.0241L10.6459 10.3842L10.862 10.3362C11.5821 10.2161 12.3262 10.5042 12.7343 11.1043Z" fill="#181818"/>
<path d="M31.2081 16.1932H28.5436V4.21504H31.2081V16.1932ZM21.1503 8.9439C24.2709 8.9439 26.4793 10.5522 26.4793 12.5686C26.4793 14.5609 24.2709 16.1932 21.1503 16.1932H15.5093V4.21504H18.1497V8.9199H21.1503V8.9439ZM21.1503 13.9848C22.8786 13.9848 23.8148 13.3367 23.8148 12.5686C23.8148 11.7764 22.8786 11.1523 21.1503 11.1523V11.1283H18.1497V13.9848H21.1503Z" fill="#181818"/>
<path d="M39.008 9.01592L45.5852 16.1932H42.4167L37.2317 10.5282L36.4156 11.2003V16.1932H33.7751V4.21504H36.4156V7.04756C36.4156 7.40763 36.3436 7.76769 36.1995 8.12776L35.5994 9.472L35.9115 9.61603L36.4156 8.51183C36.5596 8.15176 36.8236 7.8157 37.1117 7.55165L41.0724 4.21504H44.6971L39.008 9.01592Z" fill="#181818"/>
<path d="M52.9017 3.87898C56.8624 3.87898 60.055 6.7115 60.055 10.1921C60.055 13.6968 56.8624 16.5053 52.9017 16.5053C48.965 16.5053 45.7724 13.6968 45.7724 10.1921C45.7724 6.7115 48.965 3.87898 52.9017 3.87898ZM52.9017 14.2009C55.3982 14.2009 57.3905 12.4005 57.3905 10.1921C57.3905 7.98373 55.3982 6.20741 52.9017 6.20741C50.4293 6.20741 48.4129 7.98373 48.4129 10.1921C48.4129 12.4005 50.4293 14.2009 52.9017 14.2009Z" fill="#181818"/>
<path d="M71.221 10.3602C72.0851 10.2161 72.9493 10.6722 73.2854 11.4884C73.4294 11.8244 73.5014 12.1845 73.5014 12.5686C73.5014 14.5609 71.317 16.1692 68.1964 16.1692H62.2193V4.21504H68.1964C71.149 4.21504 73.1893 5.75132 73.1893 7.67167C73.1893 8.19977 73.0453 8.67986 72.7573 9.11194C72.4692 9.56802 71.9891 9.88008 71.461 9.97609L71.149 10.0241L71.221 10.3602ZM64.8598 6.44745V9.01592H68.1964C69.7567 9.01592 70.5249 8.3678 70.5249 7.67167C70.5249 6.97555 69.7567 6.44745 68.1964 6.44745H64.8598ZM68.1964 14.0568C69.9247 14.0568 70.8609 13.3367 70.8609 12.5686C70.8609 11.7764 69.9247 11.0563 68.1964 11.0563L64.8598 11.0323V14.0568H68.1964Z" fill="#181818"/>
<path d="M86.9365 4.21504H89.601V16.1932H86.9365V10.1921C86.9365 8.00774 84.9442 6.20741 82.4477 6.20741C79.9753 6.20741 77.9589 8.00774 77.9589 10.1921C77.9589 12.4005 79.3031 14.2009 80.9594 14.2009C82.6157 14.2009 83.96 12.6886 83.96 10.8643H86.6005C86.6005 13.9848 84.08 16.5053 80.9594 16.5053C77.8389 16.5053 75.3184 13.6968 75.3184 10.1921C75.3184 6.7115 78.511 3.87898 82.4477 3.87898C83.5759 3.87898 84.6561 4.11903 85.5923 4.5271C86.2164 4.79115 86.6965 5.27124 86.9845 5.89535L87.4406 6.95154L87.7767 6.80752L87.1766 5.46327C87.0325 5.12721 86.9365 4.74314 86.9365 4.38307V4.21504Z" fill="#181818"/>
<path d="M7.1293 23.365C11.09 23.365 14.2826 26.1975 14.2826 29.6781C14.2826 33.1828 11.09 35.9913 7.1293 35.9913C3.19258 35.9913 0 33.1828 0 29.6781C0 26.1975 3.19258 23.365 7.1293 23.365ZM7.1293 33.6869C9.62576 33.6869 11.6181 31.8865 11.6181 29.6781C11.6181 27.4697 9.62576 25.6934 7.1293 25.6934C4.65685 25.6934 2.64048 27.4697 2.64048 29.6781C2.64048 31.8865 4.65685 33.6869 7.1293 33.6869Z" fill="#181818"/>
<path d="M21.6799 28.5019L28.2571 35.6792H25.0885L19.9036 30.0142L19.0874 30.6863V35.6792H16.4469V23.701H19.0874V26.5335C19.0874 26.8936 19.0154 27.2537 18.8714 27.6137L18.2713 28.958L18.5833 29.102L19.0874 27.9978C19.2314 27.6377 19.4955 27.3017 19.7835 27.0376L23.7443 23.701H27.3689L21.6799 28.5019Z" fill="#181818"/>
<path d="M35.5735 33.6869C36.9178 33.6869 38.094 33.1588 38.9342 32.3426H42.0547C40.9265 34.503 38.4541 35.9913 35.5735 35.9913C31.6368 35.9913 28.4442 33.1828 28.4442 29.6781C28.4442 26.1975 31.6368 23.365 35.5735 23.365C38.4541 23.365 40.9265 24.8772 42.0547 27.0136H38.9342C38.094 26.1975 36.9178 25.6934 35.5735 25.6934C33.1011 25.6934 31.0847 27.4697 31.0847 29.6781C31.0847 31.8865 33.1011 33.6869 35.5735 33.6869Z" fill="#181818"/>
<path d="M55.3042 23.701H57.9687V35.6792H55.3042V29.6781C55.3042 27.4937 53.3118 25.6934 50.8154 25.6934C48.3429 25.6934 46.3266 27.4937 46.3266 29.6781C46.3266 31.8865 47.6708 33.6869 49.3271 33.6869C50.9834 33.6869 52.3277 32.1746 52.3277 30.3502H54.9681C54.9681 33.4708 52.4477 35.9913 49.3271 35.9913C46.2065 35.9913 43.6861 33.1828 43.6861 29.6781C43.6861 26.1975 46.8787 23.365 50.8154 23.365C51.9436 23.365 53.0238 23.605 53.96 24.0131C54.5841 24.2771 55.0642 24.7572 55.3522 25.3813L55.8083 26.4375L56.1444 26.2935L55.5443 24.9493C55.4002 24.6132 55.3042 24.2291 55.3042 23.8691V23.701Z" fill="#181818"/>
<path d="M70.4933 23.701H73.1578V35.6792H70.4933V30.6863H63.172V35.6792H60.5315V23.701H63.172V28.6939H70.4933V23.701Z" fill="#181818"/>
<path d="M86.9365 23.701H89.601V35.6792H86.9365V29.6781C86.9365 27.4937 84.9442 25.6934 82.4477 25.6934C79.9753 25.6934 77.9589 27.4937 77.9589 29.6781C77.9589 31.8865 79.3031 33.6869 80.9594 33.6869C82.6158 33.6869 83.96 32.1746 83.96 30.3502H86.6005C86.6005 33.4708 84.08 35.9913 80.9594 35.9913C77.8389 35.9913 75.3184 33.1828 75.3184 29.6781C75.3184 26.1975 78.511 23.365 82.4477 23.365C83.5759 23.365 84.6561 23.605 85.5923 24.0131C86.2164 24.2771 86.6965 24.7572 86.9845 25.3813L87.4406 26.4375L87.7767 26.2935L87.1766 24.9493C87.0326 24.6132 86.9365 24.2291 86.9365 23.8691V23.701Z" fill="#181818"/>
<path d="M93.6131 16.8316C93.6202 17.8534 93.9788 19.1995 94.7563 20.4053C96.555 23.1939 99.1136 24.568 102.48 24.3734C102.709 24.3594 102.981 24.3892 103.093 24.1246C103.199 23.8722 103.024 23.6794 102.877 23.4971C102.785 23.3832 102.67 23.2903 102.57 23.1834C101.591 22.1387 101.536 20.698 102.457 19.6113C102.798 19.21 103.181 18.8454 103.556 18.4738C103.888 18.1436 104.221 17.8133 104.554 17.4831C107.218 14.8387 109.883 12.1938 112.553 9.55434C114.106 8.01898 114.663 6.15586 114.097 4.09994C112.938 -0.113559 107.858 -1.37901 104.688 1.71977C101.775 4.56791 98.8874 7.44409 96.0091 10.3273C94.3322 12.0081 93.553 14.0605 93.6113 16.8333L93.6131 16.8316Z" fill="#181818"/>
<path d="M112.836 12.7706C112.571 12.7706 112.302 12.7408 112.042 12.7758C111.344 12.8722 111.247 13.1334 111.684 13.689C113.18 15.5942 113.109 16.5827 111.39 18.2863C107.911 21.7304 104.434 25.1744 100.969 28.6325C99.3556 30.245 98.8591 32.1765 99.5624 34.3393C100.842 38.2741 105.778 39.4327 108.78 36.4986C111.987 33.363 115.143 30.1749 118.345 27.034C119.778 25.6284 120.63 23.9896 120.9 21.9915C121.55 17.2014 117.691 12.7408 112.836 12.7706Z" fill="#181818"/>
<path d="M136.219 4.21504H138.883V16.1932H136.219V10.2161C136.219 8.00773 134.226 6.20741 131.73 6.20741C129.257 6.20741 127.241 8.00773 127.241 10.2161C127.241 12.4005 128.585 14.2009 130.241 14.2009C131.898 14.2009 133.242 12.7126 133.242 10.8643H135.882C135.882 13.9848 133.362 16.5293 130.241 16.5293C127.121 16.5293 124.6 13.6968 124.6 10.2161C124.6 6.7115 127.793 3.87898 131.73 3.87898C132.858 3.87898 133.938 4.11903 134.874 4.5271C135.498 4.79115 135.978 5.29524 136.267 5.89535L136.723 6.95154L137.059 6.80752L136.459 5.46327C136.315 5.12721 136.219 4.76714 136.219 4.38307V4.21504Z" fill="#181818"/>
<path d="M152.843 0.230317H155.508V16.1932H152.843V10.2161C152.843 8.00773 150.851 6.20741 148.355 6.20741C145.882 6.20741 143.866 8.00773 143.866 10.2161C143.866 12.4005 145.21 14.2009 146.866 14.2009C148.523 14.2009 149.867 12.7126 149.867 10.8643H152.507C152.507 13.9848 149.987 16.5293 146.866 16.5293C143.746 16.5293 141.225 13.6968 141.225 10.2161C141.225 6.7115 144.418 3.87898 148.355 3.87898C149.483 3.87898 150.563 4.11903 151.499 4.5271C152.123 4.79115 152.603 5.29524 152.891 5.89535L153.348 6.95154L153.684 6.80752L153.083 5.46327C152.939 5.12721 152.843 4.76714 152.843 4.38307V0.230317Z" fill="#181818"/>
<path d="M169.54 4.21504H172.133L166.18 16.1932H163.347L157.394 4.21504H159.987L164.307 12.9046C164.475 13.2647 164.571 13.6728 164.571 14.0808V14.5369H164.932V14.0808C164.932 13.6728 165.028 13.2647 165.22 12.9046L169.54 4.21504Z" fill="#181818"/>
<path d="M184.194 4.21504H186.859V16.1932H184.194V10.2161C184.194 8.00773 182.202 6.20741 179.706 6.20741C177.233 6.20741 175.217 8.00773 175.217 10.2161C175.217 12.4005 176.561 14.2009 178.217 14.2009C179.874 14.2009 181.218 12.7126 181.218 10.8643H183.858C183.858 13.9848 181.338 16.5293 178.217 16.5293C175.097 16.5293 172.576 13.6968 172.576 10.2161C172.576 6.7115 175.769 3.87898 179.706 3.87898C180.834 3.87898 181.914 4.11903 182.85 4.5271C183.474 4.79115 183.954 5.29524 184.242 5.89535L184.699 6.95154L185.035 6.80752L184.434 5.46327C184.29 5.12721 184.194 4.76714 184.194 4.38307V4.21504Z" fill="#181818"/>
<path d="M196.859 3.87898C199.979 3.90299 202.5 6.44745 202.5 9.56802V16.1932H199.835V9.54401C199.835 7.69568 198.491 6.20741 196.835 6.20741C194.362 6.20741 192.346 8.00773 192.346 10.2161V16.1932H189.705V4.21504H192.346V4.38307C192.346 4.76714 192.274 5.12721 192.13 5.46327L191.53 6.80752L191.842 6.95154L192.322 5.89535C192.586 5.29524 193.066 4.81515 193.666 4.5511C194.626 4.11903 195.706 3.87898 196.859 3.87898Z" fill="#181818"/>
<path d="M211.759 14.2009C213.104 14.2009 214.28 13.6728 215.12 12.8566H218.241C217.112 15.017 214.64 16.5293 211.759 16.5293C207.823 16.5293 204.63 13.6968 204.63 10.2161C204.63 6.7115 207.823 3.87898 211.759 3.87898C214.64 3.87898 217.112 5.39126 218.241 7.55165H215.12C214.28 6.7355 213.104 6.20741 211.759 6.20741C209.287 6.20741 207.271 8.00773 207.271 10.2161C207.271 12.4005 209.287 14.2009 211.759 14.2009Z" fill="#181818"/>
<path d="M234.201 10.2161C234.201 10.5522 234.177 10.8883 234.105 11.2003H222.703C223.207 12.9286 224.96 14.2009 227.048 14.2009C228.392 14.2009 229.569 13.6728 230.409 12.8566H233.529C232.401 15.017 229.929 16.5293 227.048 16.5293C223.111 16.5293 219.919 13.6968 219.919 10.2161C219.919 6.7115 223.111 3.87898 227.048 3.87898C230.625 3.87898 233.577 6.1834 234.105 9.20795C234.177 9.54401 234.201 9.85607 234.201 10.2161ZM223.591 9.20795H231.393C230.913 7.47964 229.136 6.20741 227.048 6.20741C225.08 6.20741 223.423 7.33561 222.799 8.8959C222.751 9.08793 222.655 9.25596 222.559 9.39999L222.079 10.0961L222.391 10.3122L222.847 9.59202C223.015 9.35198 223.279 9.20795 223.591 9.20795Z" fill="#181818"/>
<path d="M247.623 0.230317H250.288V16.1932H247.623V10.2161C247.623 8.00773 245.631 6.20741 243.134 6.20741C240.662 6.20741 238.646 8.00773 238.646 10.2161C238.646 12.4005 239.99 14.2009 241.646 14.2009C243.302 14.2009 244.647 12.7126 244.647 10.8643H247.287C247.287 13.9848 244.767 16.5293 241.646 16.5293C238.526 16.5293 236.005 13.6968 236.005 10.2161C236.005 6.7115 239.198 3.87898 243.134 3.87898C244.263 3.87898 245.343 4.11903 246.279 4.5271C246.903 4.79115 247.383 5.29524 247.671 5.89535L248.127 6.95154L248.463 6.80752L247.863 5.46327C247.719 5.12721 247.623 4.76714 247.623 4.38307V0.230317Z" fill="#181818"/>
<path d="M138.859 29.7021C138.859 30.0382 138.835 30.3742 138.763 30.6863H127.361C127.865 32.4146 129.617 33.6869 131.706 33.6869C133.05 33.6869 134.226 33.1588 135.066 32.3426H138.187C137.059 34.503 134.586 36.0153 131.706 36.0153C127.769 36.0153 124.576 33.1828 124.576 29.7021C124.576 26.1975 127.769 23.365 131.706 23.365C135.282 23.365 138.235 25.6694 138.763 28.6939C138.835 29.03 138.859 29.3421 138.859 29.7021ZM128.249 28.6939H136.05C135.57 26.9656 133.794 25.6934 131.706 25.6934C129.737 25.6934 128.081 26.8216 127.457 28.3819C127.409 28.5739 127.313 28.7419 127.217 28.886L126.737 29.5821L127.049 29.7981L127.505 29.078C127.673 28.838 127.937 28.6939 128.249 28.6939Z" fill="#181818"/>
<path d="M148.32 23.365C151.441 23.389 153.961 25.9334 153.961 29.054V35.6792H151.297V29.03C151.297 27.1817 149.952 25.6934 148.296 25.6934C145.824 25.6934 143.807 27.4937 143.807 29.7021V35.6792H141.167V23.701H143.807V23.8691C143.807 24.2531 143.735 24.6132 143.591 24.9493L142.991 26.2935L143.303 26.4375L143.783 25.3813C144.047 24.7812 144.527 24.3011 145.128 24.0371C146.088 23.605 147.168 23.365 148.32 23.365Z" fill="#181818"/>
<path d="M167.734 23.701H170.398V33.6869C170.398 37.1675 167.206 40 163.245 40H159.092V37.6716H163.245C165.741 37.6716 167.734 35.8953 167.734 33.6869V29.7021C167.734 27.4937 165.741 25.6934 163.245 25.6934C160.772 25.6934 158.756 27.4937 158.756 29.7021C158.756 31.8865 160.1 33.6869 161.757 33.6869C163.413 33.6869 164.757 32.1986 164.757 30.3502H167.398C167.398 33.4708 164.877 36.0153 161.757 36.0153C158.636 36.0153 156.116 33.1828 156.116 29.7021C156.116 26.1975 159.308 23.365 163.245 23.365C164.373 23.365 165.453 23.605 166.389 24.0131C167.014 24.2771 167.494 24.7812 167.782 25.3813L168.238 26.4375L168.574 26.2935L167.974 24.9493C167.83 24.6132 167.734 24.2531 167.734 23.8691V23.701Z" fill="#181818"/>
<path d="M177.134 33.6869H178.79V36.0153H177.134C174.925 36.0153 173.149 34.527 173.149 32.6787V19.7163H175.79V32.6787C175.79 33.2308 176.39 33.6869 177.134 33.6869Z" fill="#181818"/>
<path d="M183.438 35.6792H180.797V23.701H183.438V35.6792ZM183.438 23.0289H180.797V20.3884H183.438V23.0289Z" fill="#181818"/>
<path d="M195.961 29.4621C197.065 30.1582 197.738 31.1184 197.738 32.1746C197.738 34.287 195.073 36.0153 191.761 36.0153C188.448 36.0153 185.783 34.287 185.783 32.1746C185.783 32.1266 185.783 32.0786 185.783 32.0305H188.448C188.448 32.0786 188.424 32.1266 188.424 32.1746C188.424 33.0147 189.912 33.6869 191.761 33.6869C193.585 33.6869 195.073 33.0147 195.073 32.1746C195.073 31.3584 193.417 31.0224 191.761 30.6863C190.104 30.3502 188.568 30.2302 187.536 29.4621C186.648 28.814 186.095 27.9738 186.095 27.0376C186.095 25.0213 188.64 23.365 191.761 23.365C194.881 23.365 197.402 25.0213 197.402 27.0376H194.737C194.737 26.2935 193.417 25.6934 191.761 25.6934C190.104 25.6934 188.76 26.2935 188.76 27.0376C188.76 27.7578 190.128 28.0458 191.761 28.3579C193.417 28.6939 194.881 28.79 195.961 29.4621Z" fill="#181818"/>
<path d="M207.276 23.365C210.397 23.389 212.917 25.9334 212.917 29.054V35.6792H210.253V29.03C210.253 27.1817 208.908 25.6934 207.252 25.6934C204.78 25.6934 202.763 27.4937 202.763 29.7021V35.6792H200.123V19.7163H202.763V23.8691C202.763 24.2531 202.691 24.6132 202.547 24.9493L201.947 26.2935L202.259 26.4375L202.739 25.3813C203.003 24.7812 203.483 24.3011 204.084 24.0371C205.044 23.605 206.124 23.365 207.276 23.365Z" fill="#181818"/>
</svg>
