<svg viewBox="0 0 40 41" fill="none" xmlns="http://www.w3.org/2000/svg">
<path d="M14.6667 7.16602H12C10.8954 7.16602 10 8.06144 10 9.16601V31.8327C10 32.9373 10.8954 33.8327 12 33.8327H14.6667C15.7712 33.8327 16.6667 32.9373 16.6667 31.8327V9.16602C16.6667 8.06145 15.7712 7.16602 14.6667 7.16602Z" fill="#213346"/>
<path d="M28.0007 7.16602H25.334C24.2294 7.16602 23.334 8.06144 23.334 9.16601V31.8327C23.334 32.9373 24.2294 33.8327 25.334 33.8327H28.0007C29.1052 33.8327 30.0007 32.9373 30.0007 31.8327V9.16602C30.0007 8.06145 29.1052 7.16602 28.0007 7.16602Z" fill="#213346"/>
</svg>
