<svg  viewBox="0 0 25 24" fill="none" xmlns="http://www.w3.org/2000/svg">
<path fill-rule="evenodd" clip-rule="evenodd" d="M5.23581 10.4605C10.0614 8.28597 13.2792 6.85239 14.8893 6.15976C19.4863 4.18214 20.4415 3.83861 21.0641 3.82727C21.201 3.82477 21.5072 3.85987 21.7055 4.02632C21.873 4.16687 21.9191 4.35672 21.9411 4.48997C21.9632 4.62322 21.9906 4.92678 21.9688 5.16396C21.7197 7.87116 20.6418 14.4408 20.0934 17.4729C19.8614 18.7559 19.4045 19.1861 18.9621 19.2282C18.0009 19.3197 17.2709 18.5711 16.3399 17.9399C14.883 16.9521 14.0599 16.3373 12.6458 15.3734C11.0114 14.2595 12.0709 13.6472 13.0023 12.6467C13.246 12.3848 17.4814 8.40033 17.5634 8.03887C17.5737 7.99366 17.5832 7.82515 17.4864 7.73618C17.3896 7.6472 17.2468 7.67762 17.1437 7.70182C16.9976 7.73612 14.6701 9.3272 10.1614 12.4751C9.5008 12.9443 8.90242 13.1729 8.36629 13.1609C7.77526 13.1477 6.63834 12.8152 5.79316 12.5311C4.75652 12.1826 3.93261 11.9983 4.00436 11.4064C4.04172 11.0981 4.45221 10.7828 5.23581 10.4605Z" fill="#181818"/>
</svg>
