<svg viewBox="0 0 25 24" fill="none" xmlns="http://www.w3.org/2000/svg">
<path d="M13.1784 5.67239C12.7227 5.67239 12.3532 6.04273 12.3532 6.49956C12.3532 6.9564 12.7227 7.32674 13.1784 7.32674C14.2288 7.32674 15.0399 7.67406 15.5863 8.22184C16.1328 8.76961 16.4793 9.58266 16.4793 10.6354C16.4793 11.0923 16.8487 11.4626 17.3045 11.4626C17.7603 11.4626 18.1297 11.0923 18.1297 10.6354C18.1297 9.20671 17.651 7.95181 16.7533 7.05203C15.8557 6.15224 14.6038 5.67239 13.1784 5.67239Z" fill="#181818"/>
<path d="M6.58833 8.98615C6.68263 8.2386 7.65184 7.22262 8.42103 7.33535L8.4198 7.33412C9.06274 7.45658 9.59059 8.42658 9.93847 9.06583C9.99562 9.17085 10.0479 9.26694 10.0951 9.34888C10.3318 9.77022 10.1781 10.1971 9.9573 10.3772C9.93177 10.3979 9.905 10.4192 9.87746 10.4411C9.58365 10.6749 9.20189 10.9786 9.29125 11.2834C9.46502 11.8762 11.5281 13.9441 12.5427 14.532C12.8534 14.712 13.095 14.3624 13.3018 14.0631C13.3507 13.9924 13.3977 13.9245 13.4431 13.867C13.6159 13.6357 14.0421 13.4975 14.4615 13.7258C15.0879 14.0914 15.6779 14.5163 16.2235 14.9947C16.496 15.223 16.56 15.5604 16.3711 15.917C16.0386 16.545 15.0767 17.3733 14.3785 17.205C13.159 16.9111 8.2272 14.9947 6.64306 9.44265C6.56011 9.1981 6.57385 9.09516 6.58575 9.00582L6.58833 8.98615Z" fill="#181818"/>
<path d="M13.1784 8.15392C12.7227 8.15392 12.3532 8.52426 12.3532 8.9811C12.3532 9.43793 12.7227 9.80827 13.1784 9.80827C13.3227 9.80827 13.5359 9.88888 13.7296 10.083C13.9232 10.2771 14.0037 10.4909 14.0037 10.6354C14.0037 11.0923 14.3731 11.4626 14.8289 11.4626C15.2846 11.4626 15.6541 11.0923 15.6541 10.6354C15.6541 9.95284 15.3219 9.33946 14.8966 8.91318C14.4714 8.4869 13.8594 8.15392 13.1784 8.15392Z" fill="#181818"/>
<path fill-rule="evenodd" clip-rule="evenodd" d="M8.65417 22.0763C8.67765 22.0893 8.70175 22.1011 8.72638 22.1117C9.17422 22.3048 9.72705 21.8737 10.8327 21.0117L11.9406 20.148C14.1591 20.2216 16.0783 19.9298 17.562 19.4094C19.2212 18.8274 20.5258 17.5197 21.1064 15.8565C21.9066 13.5645 21.9066 9.36063 21.1064 7.06861C20.5258 5.40539 19.2212 4.09769 17.562 3.5157C14.9199 2.58901 9.73732 2.6063 7.14456 3.5157C5.48528 4.09769 4.18069 5.40539 3.60008 7.06861C2.79997 9.36063 2.79997 13.5645 3.60008 15.8565C4.18069 17.5197 5.48528 18.8274 7.14456 19.4094C7.47007 19.5236 7.83415 19.6488 8.22719 19.7344C8.22719 21.1385 8.22719 21.8405 8.65417 22.0763ZM9.87761 19.6605V18.7343C9.87761 18.5397 9.74228 18.3715 9.55245 18.3308C8.92373 18.1961 8.29878 18.0615 7.68966 17.8479C6.50446 17.4322 5.57261 16.4981 5.15789 15.3101C4.84275 14.4073 4.65043 12.989 4.65043 11.4625C4.65043 9.9361 4.84275 8.51777 5.15789 7.61501C5.57261 6.427 6.50446 5.49292 7.68966 5.07722C8.73572 4.71032 10.4694 4.48359 12.3366 4.48152C14.2035 4.47945 15.948 4.7023 17.0169 5.07722C18.202 5.49292 19.1339 6.427 19.5486 7.61501C19.8638 8.51777 20.0561 9.9361 20.0561 11.4625C20.0561 12.989 19.8638 14.4073 19.5486 15.3101C19.1339 16.4981 18.202 17.4322 17.0169 17.8479C15.2578 18.4649 13.3922 18.5342 11.5478 18.4794C11.4514 18.4766 11.3569 18.5073 11.2808 18.5666L9.87761 19.6605Z" fill="#181818"/>
</svg>
